<svg width="68" height="67" viewBox="0 0 68 67" fill="none" xmlns="http://www.w3.org/2000/svg">
<path d="M24.7354 38.2285C24.4943 37.6974 24.1682 37.2089 23.7699 36.7821C23.5655 36.5672 23.4079 36.3124 23.307 36.0338C23.2062 35.7552 23.1642 35.4588 23.1838 35.1633C23.1883 35.0476 23.1629 34.9326 23.1102 34.8294C23.0574 34.7262 22.979 34.6381 22.8825 34.5736C22.4368 34.2478 22.0655 33.8313 21.7933 33.3519C21.521 32.8724 21.3539 32.3408 21.303 31.7922C21.28 31.6767 21.2238 31.5704 21.1412 31.4862C20.731 31.06 20.4117 30.5553 20.2026 30.0027C19.9935 29.45 19.8989 28.8609 19.9245 28.2708C19.925 28.1435 19.8817 28.0197 19.8017 27.9204C19.004 26.9898 18.5648 25.8066 18.5627 24.5826C18.5606 24.4185 18.5164 24.2576 18.4343 24.1153C17.8063 23.281 17.4922 22.2532 17.5469 21.2115C17.539 21.1026 17.4959 20.9991 17.4242 20.9166C16.8284 20.0884 16.5118 19.0931 16.52 18.074C16.5127 17.9324 16.4706 17.7949 16.3972 17.6734C15.8487 16.7737 15.5988 15.7245 15.6829 14.675C15.692 14.5453 15.6629 14.4158 15.5991 14.3023C15.0599 13.5262 14.8219 12.5812 14.9294 11.6432C14.9294 11.5349 14.8942 11.4295 14.829 11.3428C14.1516 10.3504 13.86 9.14612 14.0085 7.955C14.0171 7.82487 13.9817 7.69562 13.9081 7.58784C13.1281 6.40621 12.628 5.06317 12.4458 3.66041C12.4264 3.4106 12.3699 3.16503 12.2784 2.93167C11.8694 2.16267 11.6333 1.31415 11.5863 0.445035C11.6068 0.290505 11.6521 0.140251 11.7203 0C11.8682 0.0425903 12.0092 0.106297 12.1389 0.18914C16.6707 4.39472 21.1747 8.60586 25.7121 12.7948C26.2622 13.2665 26.6755 13.8764 26.9091 14.5612C27.1427 15.246 27.188 15.9806 27.0404 16.6888C26.912 17.4899 26.7836 18.2909 26.7223 19.1031C26.5774 20.9634 27.1436 22.8095 28.3073 24.2711L28.5026 24.5381C28.5153 24.5424 28.529 24.5424 28.5417 24.5381L28.9659 24.2433C29.0466 24.4033 29.1048 24.5736 29.1389 24.7495C29.1389 25.1 29.1389 25.4504 29.1389 25.8621C29.3789 25.6451 29.5854 25.5061 29.63 25.1333C29.675 24.7107 29.8314 24.3074 30.0833 23.9645C30.3352 23.6215 30.6737 23.3511 31.0643 23.1808C31.1543 23.1469 31.2313 23.0858 31.2844 23.0059C31.3375 22.926 31.364 22.8315 31.3601 22.7357C31.399 22.3714 31.3653 22.003 31.2609 21.6516C31.1565 21.3003 30.9835 20.973 30.7518 20.6886C30.0869 19.7928 29.6191 18.7673 29.3789 17.679C29.3789 17.5622 29.3342 17.4454 29.2896 17.2451L31.349 17.7625V17.3564C31.349 16.1659 31.349 14.981 31.349 13.7905C31.3563 13.6776 31.3362 13.5646 31.2906 13.461C31.2449 13.3575 31.175 13.2663 31.0867 13.1953C29.5821 11.8223 28.6266 9.95308 28.3966 7.93275C28.3966 7.81593 28.3966 7.6991 28.3966 7.5489C29.4553 7.82575 30.4579 8.28309 31.3601 8.9007V8.14414C31.3601 7.27632 31.3601 6.4085 31.3601 5.54625C31.3427 5.09191 31.4612 4.64266 31.7006 4.25565C32.4261 3.00399 33.1349 1.73007 33.8549 0.467287C33.9163 0.367154 33.9833 0.267021 34.0614 0.13351C34.6195 1.13484 35.1776 2.09723 35.7357 3.06518C36.1375 3.62373 36.4657 4.23134 36.7124 4.87313C36.8142 5.55461 36.8292 6.24619 36.7571 6.93142C36.7571 9.0509 36.7571 11.1759 36.7571 13.301V13.7627C37.5365 12.6545 38.5079 11.6938 39.6257 10.9256C39.715 11.5876 39.8322 12.1828 39.8713 12.7836C39.9947 14.1782 39.8002 15.5825 39.3025 16.8916C38.8048 18.2008 38.0167 19.3808 36.997 20.3437C36.9029 20.4262 36.8297 20.5296 36.7831 20.6455C36.7366 20.7615 36.7181 20.8868 36.7291 21.0112C36.7291 21.5675 36.7291 22.1683 36.7291 22.7468C36.7354 22.8104 36.7557 22.8717 36.7885 22.9265C36.8213 22.9813 36.8658 23.0282 36.9189 23.0639C37.3661 23.2532 37.753 23.5604 38.0382 23.9525C38.3234 24.3445 38.496 24.8066 38.5374 25.2891C38.5374 25.4782 38.8053 25.634 39.0174 25.7786C39.0174 25.3726 39.0174 24.972 39.0174 24.5715C39.0174 24.171 39.1179 24.2043 39.4527 24.349C40.2712 23.3168 40.8111 22.0931 41.021 20.7943C41.1773 19.6126 41.1358 18.4132 40.8982 17.2451C40.8313 16.8501 40.7754 16.4552 40.742 16.0546C40.6814 15.4665 40.7645 14.8724 40.9842 14.3232C41.2038 13.774 41.5534 13.2858 42.0033 12.9004C44.1129 10.9479 46.2058 9.00639 48.3099 7.02599C50.7656 4.7526 53.2231 2.47922 55.6825 0.205829C55.812 0.118569 55.9528 0.0493216 56.1011 0C56.1755 0.145003 56.2264 0.300845 56.2518 0.461724C56.2161 1.29603 56.0031 2.11327 55.6267 2.85935C55.506 3.15595 55.4217 3.46602 55.3756 3.7828C55.174 5.12702 54.6869 6.41289 53.9468 7.55447C53.864 7.66513 53.8208 7.80028 53.824 7.93831C53.9659 9.11972 53.681 10.3129 53.0204 11.3039C52.9389 11.4194 52.8959 11.5576 52.8976 11.6989C52.9804 12.5911 52.7582 13.4851 52.2669 14.2356C52.18 14.3837 52.1374 14.5536 52.1441 14.7251C52.2086 15.731 51.9737 16.7334 51.4688 17.6067C51.3694 17.7863 51.3122 17.986 51.3014 18.1908C51.2823 19.1539 50.9752 20.0895 50.4196 20.8777C50.3384 20.9798 50.2897 21.1038 50.28 21.2337C50.3273 22.2255 50.0405 23.2046 49.4652 24.0152C49.3484 24.2217 49.2797 24.4518 49.2643 24.6883C49.232 25.8764 48.7951 27.0182 48.0253 27.9259C47.9393 28.0334 47.8921 28.1667 47.8913 28.3042C47.919 28.8946 47.8242 29.4844 47.6129 30.0366C47.4017 30.5889 47.0785 31.0918 46.6635 31.514C46.5865 31.6021 46.5362 31.7101 46.5184 31.8256C46.4631 32.3749 46.2924 32.9064 46.0174 33.3857C45.7424 33.8649 45.3692 34.281 44.9222 34.607C44.836 34.6637 44.766 34.7416 44.7191 34.8333C44.6721 34.9249 44.6498 35.0271 44.6543 35.1299C44.6654 35.5262 44.5828 35.9195 44.4131 36.2781C44.2435 36.6366 43.9915 36.9503 43.6776 37.1938C43.6203 37.2303 43.5724 37.2799 43.5381 37.3384C43.3874 37.6444 43.2479 37.9559 43.0748 38.3231C43.2255 38.2619 43.3427 38.2174 43.4544 38.1617C44.7178 37.4982 45.8918 36.6776 46.9481 35.7196C47.1993 35.5027 47.3946 35.5027 47.6067 35.7196C48.0253 36.1035 48.4271 36.4984 48.8345 36.8934C48.9127 36.9713 48.9796 37.0547 49.0355 37.1215L51.6753 34.9964L55.024 38.7681C55.024 38.8015 55.024 38.8404 54.9737 38.8515C52.3841 40.5371 50.0177 42.5565 47.5955 44.5035L47.3109 44.7316C47.1941 44.8548 47.048 44.9466 46.8861 44.9986C46.7242 45.0505 46.5518 45.0609 46.3848 45.0287C46.2178 44.9965 46.0617 44.9229 45.9309 44.8145C45.8001 44.7062 45.6989 44.5667 45.6366 44.4089C45.391 43.9861 45.1678 43.5522 44.9222 43.0961C43.6558 43.6443 42.3352 44.0582 40.9819 44.331C39.6448 44.5952 38.2805 44.696 36.9189 44.6314C36.9945 44.9186 37.0358 45.2136 37.0417 45.5104C37.0131 45.699 36.916 45.8706 36.7689 45.9926C36.6218 46.1146 36.4349 46.1786 36.2436 46.1724C34.6976 46.1724 33.1461 46.1724 31.5945 46.1724C31.449 46.167 31.3071 46.1251 31.1821 46.0505C31.0571 45.9758 30.953 45.871 30.8795 45.7456C30.806 45.6202 30.7655 45.4783 30.7617 45.3331C30.758 45.188 30.791 45.0442 30.8578 44.9151C30.9114 44.8116 30.971 44.7113 31.0364 44.6147C28.2362 44.75 25.4432 44.2279 22.8825 43.0905C22.6481 43.5133 22.4527 43.9472 22.1848 44.3422C22.0157 44.5971 21.7905 44.8102 21.5263 44.9652C21.3569 45.0422 21.1671 45.0627 20.9851 45.0236C20.8031 44.9845 20.6386 44.888 20.5161 44.7483C19.1543 43.6357 17.8093 42.5231 16.4251 41.4661C15.2643 40.5705 14.0588 39.7249 12.8756 38.8571L12.7584 38.7514L16.068 35.0465C17.0279 35.6445 17.9205 36.344 18.7301 37.1326C19.065 36.7766 19.3887 36.415 19.7403 36.0812C20.4491 35.4081 20.4491 35.4192 21.1914 36.0144C22.2429 36.9456 23.4233 37.7212 24.6963 38.3175H24.7856L24.7354 38.2285ZM28.0059 33.6391H28.0394V33.589C27.9618 33.2229 27.7825 32.8858 27.5219 32.6163C27.2614 32.3468 26.9302 32.1557 26.566 32.0648C26.6514 32.4278 26.8285 32.763 27.0806 33.0386C27.3326 33.3141 27.6511 33.5208 28.0059 33.6391ZM29.6412 8.52242H29.5574L29.5965 8.58917L31.2708 10.6419C31.3372 10.3633 31.358 10.0759 31.3322 9.79077C31.3172 9.64783 31.2472 9.51625 31.1369 9.42361C30.696 9.0954 30.1379 8.81725 29.6412 8.52242ZM26.739 28.6324L26.6218 27.2584C26.3818 27.1527 26.1028 27.047 25.8404 26.9135C25.5781 26.78 25.327 26.6131 25.0647 26.4573C25.114 26.8445 25.2431 27.2173 25.4438 27.5523C25.6445 27.8874 25.9126 28.1775 26.2311 28.4044C26.3937 28.4945 26.5636 28.5708 26.739 28.6324ZM25.1149 37.828C25.2357 38.0097 25.374 38.1793 25.5279 38.3342C26.5772 39.2354 27.8552 39.3244 29.1947 39.3522L29.1277 38.6902C29.069 38.6752 29.0093 38.6641 28.9491 38.6568C27.6637 38.5865 26.3986 38.3065 25.2042 37.828C25.2042 37.828 25.1484 37.828 25.1149 37.828ZM42.7735 37.828C42.6918 37.8195 42.6095 37.8195 42.5279 37.828C41.8358 38.0227 41.1494 38.2507 40.4517 38.3843C39.8936 38.5122 39.2909 38.5567 38.6937 38.6457L38.6435 39.3077C40.2173 39.2521 41.7131 39.1241 42.7679 37.7946L42.74 37.828H42.7735ZM22.1234 16.7277L22.0955 16.6944V16.7611C22.2127 18.1685 23.2843 19.2422 24.328 18.9863L24.2443 17.501C23.4784 17.4607 22.7404 17.202 22.1179 16.7556L22.1234 16.7277ZM35.4678 23.47H35.5794L35.5181 23.3977C35.5181 23.3699 35.4846 23.3365 35.4622 23.3143L30.389 18.5858C30.3315 18.5459 30.2697 18.5123 30.2049 18.4856V18.4411L30.2383 18.4745C31.1592 20.9945 32.7777 22.808 35.4678 23.47ZM30.6067 18.1018V18.0517H30.5676L30.6123 18.0795C30.6313 18.1168 30.6537 18.1521 30.6792 18.1852L35.8473 23.0083C35.9182 23.0537 35.9929 23.0927 36.0706 23.1251C36.0401 22.999 36.0029 22.8746 35.959 22.7524C35.5057 21.6428 34.8087 20.6485 33.9192 19.8427C33.0296 19.0369 31.9702 18.4401 30.8188 18.0962C30.7482 18.0866 30.6766 18.0885 30.6067 18.1018ZM18.1162 21.8623H18.066L18.1051 21.8123C18.0874 21.9817 18.0988 22.1529 18.1385 22.3185C18.3727 22.9284 18.674 23.5105 19.0371 24.0541C20.3905 25.9124 22.3365 27.2578 24.5568 27.8703C24.7149 27.912 24.8751 27.9455 25.0368 27.9704L24.3726 25.9845C21.7662 25.4616 19.7738 23.9206 18.1162 21.8623ZM21.9225 32.0926L21.889 32.0592V32.1204C21.9554 32.6861 22.2041 33.2151 22.5978 33.6279C23.2104 34.3546 24.0059 34.9057 24.9028 35.2245C25.657 35.4571 26.425 35.6429 27.2022 35.7808C27.7603 35.8865 28.3185 35.8976 28.8766 35.9477C28.9491 35.6306 28.8207 35.5416 28.6087 35.4192C28.2243 35.181 27.862 34.9092 27.5259 34.607C27.4478 34.5458 27.4311 34.4068 27.3864 34.2955C27.4839 34.2489 27.5871 34.2152 27.6934 34.1954C28.0227 34.1954 28.3575 34.1954 28.7649 34.1954C28.6648 34.1215 28.5561 34.0599 28.4412 34.0118C28.2236 33.9562 28.0003 33.9283 27.7771 33.8838C27.6417 33.8459 27.5036 33.818 27.3641 33.8004C25.7198 33.7858 24.1071 33.3489 22.6815 32.532L21.9225 32.0926ZM44.9557 22.185C45.0617 22.1575 45.166 22.1241 45.2682 22.0849C47.4629 21.123 49.3731 19.6155 50.8158 17.7068C51.227 17.1632 51.4973 16.527 51.6028 15.8544C51.6196 15.6415 51.6196 15.4275 51.6028 15.2146H51.6418V15.1868H51.5972C51.413 15.4038 51.2232 15.6207 51.0391 15.8321C49.6195 17.4191 47.829 18.6325 45.8263 19.3646C45.7011 19.414 45.598 19.5068 45.5361 19.626C45.3687 19.9431 45.2236 20.2825 45.084 20.6107C45.0339 20.7182 45 20.8326 44.9836 20.95C44.9445 21.3283 44.911 21.7177 44.8775 22.1015V22.1739L44.9557 22.185ZM54.6947 4.41141C54.6947 4.41141 54.6389 4.44479 54.6221 4.46704C52.7881 6.71401 50.5883 8.63776 48.1146 10.1579C47.9279 10.2374 47.7723 10.3756 47.6716 10.5513C47.5708 10.727 47.5304 10.9307 47.5565 11.1314C47.543 11.7697 47.4663 12.4051 47.3276 13.0284L47.2886 13.0618V13.0117C47.3476 13.0092 47.4059 12.9979 47.4616 12.9783C49.7795 11.6941 51.7561 9.87648 53.2269 7.67685C53.2771 7.60453 53.3273 7.52665 53.3831 7.4599C54.0511 6.56926 54.5106 5.54097 54.7282 4.45035V4.35022L54.6947 4.41141ZM13.1602 4.41141L13.11 4.36134V4.45035C13.4007 5.57778 13.8881 6.64545 14.5499 7.60453C16.0212 9.79057 17.9716 11.6148 20.2538 12.9394C20.3319 12.9839 20.4156 13.0228 20.5552 13.0896C20.2775 12.3729 20.1779 11.5999 20.2649 10.8366C20.2888 10.7378 20.2767 10.6337 20.2306 10.543C20.1846 10.4523 20.1078 10.3809 20.0138 10.3415C18.1606 9.2049 16.4452 7.85905 14.9015 6.33062C14.2932 5.72426 13.7351 5.05671 13.1546 4.41697L13.1602 4.41141ZM36.5673 39.9141V44.0807C38.1792 44.2162 39.8024 44.0999 41.3782 43.7358C44.2615 43.0486 46.9564 41.734 49.2699 39.8862C49.5117 39.736 49.7656 39.6057 50.0289 39.4968C49.3625 38.172 48.4094 37.0111 47.2383 36.0979C45.8397 37.4616 44.1623 38.5084 42.3207 39.167C40.4792 39.8256 38.5167 40.0804 36.5673 39.9141ZM31.2597 39.9141C27.1185 40.2367 23.5578 38.8627 20.5049 36.02C19.3682 36.9868 18.435 38.1685 17.759 39.4968C17.9699 39.5663 18.1752 39.6519 18.3729 39.7527C18.6632 39.9363 18.9311 40.1533 19.2101 40.3591C21.915 42.4433 25.1515 43.7306 28.5529 44.0751C29.4291 44.1586 30.3221 44.0751 31.2597 44.0751V39.9141ZM34.3628 1.66888H34.2958V2.00266C34.2958 7.50996 34.2958 13.0228 34.2958 18.5357C34.272 18.8317 34.3131 19.1293 34.4162 19.4079C34.5193 19.6864 34.682 19.9393 34.893 20.149C35.3263 20.6554 35.7112 21.2011 36.0427 21.7789C36.1014 21.8678 36.1536 21.9607 36.1989 22.057H36.2603V21.6955C36.2603 16.7611 36.2213 11.8268 36.2603 6.89804C36.3463 5.60432 35.9989 4.31876 35.2725 3.24319C34.9422 2.7344 34.6386 2.20892 34.3628 1.66888ZM30.5341 32.3874C31.0657 32.4184 31.5987 32.4184 32.1303 32.3874C32.3823 32.3293 32.6469 32.368 32.8714 32.4959C33.0959 32.6238 33.2638 32.8314 33.3414 33.0772C33.5809 33.5637 33.8492 34.0356 34.1451 34.4902C34.4967 33.8783 34.8427 33.322 35.1497 32.7434C35.196 32.6275 35.2801 32.5305 35.3884 32.4679C35.4967 32.4054 35.623 32.381 35.7469 32.3985C36.3943 32.3985 37.0473 32.3985 37.7505 32.3985C37.5418 31.966 37.3011 31.5495 37.0305 31.1524C36.8049 30.9263 36.6783 30.6203 36.6783 30.3013C36.6783 29.9824 36.8049 29.6764 37.0305 29.4502C37.3016 29.0602 37.5441 28.6512 37.7561 28.2263C37.2226 28.1955 36.6878 28.1955 36.1543 28.2263C35.8973 28.2841 35.6278 28.2427 35.4001 28.1107C35.1723 27.9786 35.0031 27.7655 34.9265 27.5143C34.6913 27.0432 34.4285 26.5862 34.1395 26.1458C33.7823 26.7633 33.4419 27.3196 33.1349 27.9037C33.0869 28.0084 33.0074 28.0957 32.9074 28.1535C32.8074 28.2113 32.6919 28.2368 32.5768 28.2263C31.9183 28.2263 31.2541 28.2263 30.5453 28.2263C30.9137 28.855 31.2318 29.4335 31.5834 30.0009C31.6486 30.0876 31.6838 30.193 31.6838 30.3013C31.6838 30.4096 31.6486 30.515 31.5834 30.6017C31.2206 31.1524 30.9025 31.7532 30.5341 32.3874ZM33.7879 19.0364V1.591C33.174 2.67021 32.5936 3.66597 32.0355 4.67843C31.9256 4.88014 31.8662 5.10535 31.8624 5.33486C31.8624 6.85354 31.8624 8.37778 31.8624 9.89646C31.8624 12.4925 31.8624 15.0885 31.8624 17.6846C31.8628 17.7544 31.8773 17.8234 31.9051 17.8874C31.933 17.9515 31.9735 18.0093 32.0243 18.0573C32.5991 18.3911 33.1963 18.7082 33.7879 19.0419V19.0364ZM20.5272 8.65593C20.4294 9.35096 20.6054 10.0567 21.0184 10.6252C21.3365 10.9924 21.6546 11.3706 21.9616 11.7378C22.5197 12.4053 23.0778 13.0562 23.5522 13.7571C24.3192 14.8224 24.7311 16.1008 24.7298 17.412C24.7447 20.1257 25.5578 22.7754 27.0683 25.0332C27.2915 25.3892 27.5594 25.7119 27.8385 26.0957C27.8999 25.8565 27.9445 25.6896 27.9836 25.5394C28.0407 25.352 28.0533 25.1539 28.0203 24.9608C27.9874 24.7677 27.9099 24.5849 27.7938 24.4269C26.9392 23.3069 26.3997 21.9799 26.2311 20.5829C26.119 19.3849 26.2038 18.1766 26.4823 17.0059C26.6754 16.2771 26.6522 15.5081 26.4154 14.7921C26.1787 14.0762 25.7385 13.4442 25.1484 12.9728C23.6527 11.6933 22.2574 10.3026 20.8175 8.95633L20.5272 8.65593ZM40.2955 25.7063L40.3736 25.5951C42.0869 23.2949 43.0406 20.5209 43.1028 17.6568C43.0679 16.5408 43.34 15.4365 43.8897 14.4636C44.4478 13.568 45.1119 12.7447 45.7482 11.9047C46.1389 11.3929 46.5798 10.92 46.9705 10.4083C47.2737 9.88714 47.3991 9.28197 47.3276 8.68374C47.2551 8.71712 47.2328 8.71712 47.216 8.73381C45.5417 10.3081 43.8674 11.8713 42.193 13.4567C41.8609 13.7575 41.6037 14.1313 41.4419 14.5485C41.2801 14.9657 41.2182 15.4147 41.261 15.8599C41.3168 16.533 41.4061 17.2062 41.5177 17.8737C41.7538 19.0315 41.7385 20.2263 41.4728 21.3777C41.2071 22.5292 40.6972 23.6106 39.9773 24.5492C39.9445 24.5955 39.922 24.6482 39.9114 24.7039C39.9008 24.7596 39.9024 24.8169 39.916 24.8719C40.0052 25.15 40.1504 25.4115 40.2955 25.7063ZM13.5062 38.6457C13.5246 38.6715 13.5451 38.6957 13.5676 38.718L20.7337 44.281C20.8175 44.3533 20.9123 44.4701 21.0016 44.4701C21.1861 44.4845 21.3707 44.4438 21.5318 44.3533C21.5811 44.2971 21.6144 44.2287 21.6281 44.1553C21.6419 44.0819 21.6356 44.0062 21.61 43.9361C21.4176 43.6 21.1832 43.2897 20.9123 43.0126C20.0563 42.1979 19.0745 41.5255 18.0046 41.0211C17.8223 40.9575 17.6571 40.8532 17.5214 40.7162C17.3858 40.5792 17.2833 40.4131 17.2219 40.2306C17.1605 40.0481 17.1418 39.8541 17.1672 39.6633C17.1926 39.4724 17.2614 39.2899 17.3684 39.1297C17.6865 38.5734 18.0269 38.0505 18.3953 37.4608L16.1852 35.6028L13.5062 38.6457ZM49.3759 37.4719C49.7443 38.0727 50.0847 38.5845 50.4028 39.1408C50.5086 39.3017 50.5762 39.4845 50.6007 39.6753C50.6251 39.8662 50.6056 40.06 50.5438 40.2422C50.482 40.4245 50.3794 40.5903 50.2437 40.7271C50.1081 40.864 49.943 40.9683 49.761 41.0322C48.6438 41.5692 47.6339 42.3044 46.7807 43.2018C46.561 43.45 46.3735 43.7247 46.2226 44.0195C46.1987 44.0808 46.1908 44.1471 46.1996 44.2123C46.2084 44.2775 46.2336 44.3394 46.2728 44.3922C46.4183 44.4746 46.5873 44.5059 46.7528 44.4812C46.87 44.4812 46.976 44.3422 47.0821 44.2587C48.4271 43.1795 49.761 42.0892 51.1172 41.0211C52.1441 40.2145 53.2045 39.4357 54.2649 38.6346L51.6083 35.6028L49.3759 37.4719ZM20.0473 9.77964C20.0473 9.3513 20.0473 8.91739 20.0473 8.48904C20.0556 8.39765 20.0411 8.30564 20.005 8.22119C19.969 8.13675 19.9126 8.0625 19.8408 8.00507L12.3789 1.07365L12.1333 0.867818C12.1333 0.951262 12.1333 0.995766 12.1333 1.04027C12.1432 1.12819 12.1581 1.21549 12.1779 1.30173C12.4608 2.36647 12.9625 3.36101 13.6513 4.22227C15.4424 6.38759 17.5719 8.25097 19.958 9.7407C19.9861 9.7572 20.0161 9.77027 20.0473 9.77964ZM55.7662 0.878944C55.731 0.87504 55.6954 0.87504 55.6602 0.878944L47.9025 8.09964C47.8388 8.15738 47.799 8.23672 47.7909 8.32215C47.7909 8.80613 47.7909 9.2901 47.7909 9.77964C47.8168 9.78345 47.8431 9.78345 47.869 9.77964C50.3047 8.25652 52.4698 6.34094 54.2761 4.11101C54.8691 3.34388 55.3156 2.47458 55.5932 1.5465C55.6546 1.34067 55.6881 1.11259 55.7383 0.895633L55.7662 0.878944ZM22.9773 22.2517C22.9165 22.0718 22.879 21.8849 22.8657 21.6955C22.9116 21.1324 22.7575 20.5713 22.4304 20.11C22.3672 20.0178 22.3305 19.91 22.3244 19.7985C22.3244 19.5482 22.1681 19.4703 21.9616 19.398C19.7672 18.5941 17.8365 17.2047 16.3805 15.3815C16.3358 15.3259 16.2856 15.2758 16.1907 15.1701C16.1644 15.9011 16.3567 16.6234 16.7433 17.2451C17.2615 17.9933 17.8441 18.695 18.4846 19.3423C19.7553 20.6223 21.2876 21.6146 22.9773 22.2517ZM19.1152 25.0332C19.1714 26.0026 19.5663 26.9217 20.2314 27.6311C21.5565 28.9954 23.2547 29.9414 25.1149 30.3514C25.4442 30.4237 25.7791 30.4626 26.0916 30.5127C26.0469 30.1177 25.9911 29.7673 25.98 29.4001C25.9688 29.033 26.086 29.0163 26.3316 29.2221C26.6999 29.5336 27.0292 29.8841 27.3529 30.1901C27.4701 29.5003 27.4478 29.4836 26.7502 29.1943C26.4599 29.0775 26.1921 28.8995 25.9242 28.7604C25.7521 28.6515 25.5637 28.5707 25.3661 28.5212C23.8159 28.2911 22.3503 27.6708 21.1077 26.7188C20.4045 26.207 19.7738 25.5895 19.1152 25.0332ZM27.7213 32.3429C27.6431 32.1871 27.6041 31.998 27.4869 31.9034C27.1995 31.6678 26.8975 31.4504 26.5827 31.2526C26.4457 31.1411 26.2856 31.0613 26.1139 31.0189C24.0842 30.7934 22.1692 29.9659 20.6165 28.6436C20.5719 28.6046 20.5161 28.5768 20.4212 28.51C20.4232 29.0499 20.5449 29.5826 20.7774 30.0701C21.0099 30.5577 21.3475 30.988 21.7662 31.3305C22.8673 32.1865 24.147 32.7853 25.5112 33.0828C25.9409 33.1774 26.3874 33.2219 26.806 33.283C26.6106 32.8213 26.4209 32.4152 26.2479 31.9924C26.153 31.7199 26.2479 31.6253 26.5325 31.7477C26.9288 31.9146 27.3027 32.1315 27.7213 32.3429ZM43.806 25.3614C43.8449 25.366 43.8842 25.366 43.9232 25.3614C44.0627 25.328 44.2022 25.2947 44.3418 25.2502C46.5221 24.4637 48.3908 22.999 49.6717 21.0724C50.0353 20.5035 50.3562 19.9085 50.6316 19.2923C50.7113 19.058 50.7638 18.8153 50.7879 18.5691L50.6372 18.697C49.0687 20.5316 47.0551 21.9354 44.7882 22.7747C44.7461 22.7943 44.7087 22.8229 44.6788 22.8584C44.6489 22.894 44.6272 22.9357 44.6152 22.9805C44.5073 23.8199 44.2321 24.6294 43.806 25.3614ZM17.0781 18.5858C17.0718 18.6245 17.0718 18.6639 17.0781 18.7026C17.2212 19.5619 17.5867 20.3692 18.1385 21.0446C19.4347 22.984 21.3174 24.461 23.5131 25.2613C23.675 25.3169 23.8424 25.3447 24.021 25.3948C23.8424 24.9776 23.6582 24.6104 23.5299 24.221C23.4015 23.8316 23.3401 23.4033 23.2285 22.9972C23.2138 22.9483 23.1888 22.9031 23.1551 22.8648C23.1214 22.8264 23.0798 22.7956 23.0332 22.7747C21.1411 22.0726 19.4265 20.9656 18.0102 19.5315C17.6809 19.2366 17.4018 18.914 17.0781 18.5858ZM15.4038 12.1828C15.4499 12.8735 15.6833 13.5388 16.0791 14.1076C17.4392 16.2016 19.4132 17.8273 21.7328 18.7638C21.889 18.8305 22.0509 18.8917 22.2909 18.9696C22.2909 18.7972 22.2909 18.6525 22.2295 18.5691C21.8269 17.9391 21.6014 17.2128 21.5765 16.4663C21.5799 16.3852 21.5525 16.3057 21.4997 16.2439C21.447 16.182 21.3727 16.1422 21.2919 16.1325C19.4437 15.5957 17.7644 14.596 16.414 13.2287C16.068 12.9116 15.7666 12.5722 15.4038 12.1828ZM45.5696 18.9752C47.2558 18.3684 48.793 17.4107 50.0791 16.1659C50.8757 15.4184 51.5449 14.5466 52.0604 13.5847C52.2997 13.1561 52.4247 12.6734 52.4232 12.1828L52.2948 12.3163C50.805 14.146 48.7894 15.4776 46.5184 16.1325C46.3007 16.1937 46.3063 16.3272 46.2896 16.4774C46.2603 17.2019 46.0451 17.9067 45.6645 18.5246C45.6082 18.6686 45.5762 18.8208 45.5696 18.9752ZM21.1579 15.604C21.0854 15.337 21.0184 15.1312 20.9793 14.9198C20.9313 14.7025 20.9106 14.4802 20.9179 14.2578C20.9279 14.1425 20.9016 14.0269 20.8426 13.9271C20.7836 13.8274 20.6948 13.7485 20.5886 13.7015C18.2129 12.4505 16.1551 10.6753 14.5722 8.51129C14.5722 8.51129 14.5276 8.51129 14.4941 8.47235C14.4382 9.33803 14.6739 10.1975 15.1638 10.9145C16.384 12.8722 18.184 14.404 20.3152 15.2981C20.5775 15.4038 20.8454 15.4872 21.1579 15.604ZM46.7528 15.5762L47.1044 15.4594C49.0421 14.7265 50.7436 13.4824 52.0269 11.8602C52.6147 11.1876 53.0371 10.3876 53.2603 9.52375C53.3227 9.17967 53.3655 8.83236 53.3887 8.48348C52.9199 8.96189 52.5404 9.45699 52.1274 9.91871C50.7071 11.4592 49.0375 12.751 47.1881 13.7405C47.043 13.8239 46.9314 13.8907 46.9202 14.1076C46.8812 14.5805 46.8142 15.0589 46.7528 15.5762ZM42.1149 30.4459C42.2079 30.451 42.301 30.451 42.394 30.4459C44.4277 30.0725 46.2868 29.0563 47.696 27.5477C48.3197 26.8506 48.6911 25.9653 48.7508 25.0332H48.6783L48.3322 25.3892C46.942 26.8719 45.1413 27.9097 43.1586 28.371C42.5745 28.4334 42.0167 28.6462 41.5401 28.9885C41.4853 29.0269 41.4251 29.0569 41.3615 29.0775C41.262 29.1094 41.1702 29.1616 41.0921 29.2308C41.0139 29.3 40.9511 29.3846 40.9075 29.4793C40.8639 29.574 40.8406 29.6767 40.839 29.7808C40.8374 29.885 40.8576 29.9884 40.8982 30.0844C41.2108 29.8006 41.5345 29.4836 41.8805 29.1943C42.0703 29.0274 42.2154 29.0886 42.2042 29.3556C42.193 29.6226 42.1428 30.0788 42.1149 30.4459ZM47.4169 28.4989C47.2997 28.5879 47.2272 28.638 47.1658 28.6936C45.7694 29.868 44.0763 30.6377 42.2712 30.9188C42.1196 30.9281 41.9718 30.9691 41.8372 31.039C41.7026 31.109 41.5842 31.2064 41.4898 31.3249C41.3236 31.5368 41.1094 31.7065 40.8647 31.82C40.6415 31.9257 40.5968 32.0648 40.5689 32.3095C40.9623 31.9801 41.4431 31.7714 41.953 31.7087C41.8959 32.2668 41.6811 32.7973 41.3335 33.2385H41.4954C43.2226 33.0273 44.8552 32.3351 46.2058 31.2414C46.5964 30.899 46.9087 30.4769 47.1215 30.0037C47.3343 29.5306 47.4426 29.0174 47.4393 28.4989H47.4169ZM42.8014 27.976C42.9409 27.9426 43.1362 27.9093 43.326 27.8592C45.3745 27.299 47.1894 26.1001 48.5053 24.438C48.9226 23.8915 49.2835 23.3044 49.5824 22.6857C49.6831 22.4409 49.7543 22.1851 49.7945 21.9235C48.0253 23.9206 46.0663 25.5005 43.4767 25.9789L42.8014 27.976ZM38.8946 35.7919L38.9504 35.9421C39.5476 35.8865 40.1448 35.842 40.7364 35.7641C42.3184 35.6418 43.8111 34.9843 44.9668 33.9005C45.488 33.4123 45.8349 32.7676 45.9547 32.0648C45.871 32.1037 45.8207 32.1148 45.7761 32.1426C44.9054 32.692 43.9676 33.1276 42.9856 33.4388C41.9977 33.7615 40.9373 33.6558 39.9494 33.9951C39.7095 34.0785 39.5588 34.1397 39.4806 34.2732C39.8657 34.2732 40.2731 34.2732 40.6806 34.2732C40.9931 34.2732 41.0266 34.3956 40.8201 34.646C40.4213 35.1761 39.8343 35.5343 39.1792 35.6473C39.0799 35.6781 38.9871 35.7272 38.9058 35.7919H38.8946ZM44.1408 35.2356C43.633 35.4415 43.153 35.6695 42.6507 35.8309C41.5533 36.1662 40.4158 36.3533 39.2685 36.3872C39.129 36.3872 38.889 36.4984 38.8779 36.5874C38.7997 37.1048 38.7774 37.6277 38.7328 38.2062C39.3578 38.1172 39.9327 38.056 40.4964 37.9504C41.5262 37.8073 42.5043 37.4117 43.3427 36.7988C43.5895 36.6195 43.7911 36.3854 43.9316 36.1151C44.072 35.8448 44.1475 35.5456 44.152 35.2412L44.1408 35.2356ZM23.675 35.1856C23.6584 35.4869 23.7182 35.7876 23.8489 36.0598C23.9796 36.332 24.177 36.5671 24.4228 36.7432C24.9235 37.0897 25.4606 37.3807 26.0246 37.611C27.0128 37.9463 28.0453 38.1338 29.0886 38.1673L28.9435 36.3983C27.1185 36.3315 25.3326 36.1146 23.6861 35.1911L23.675 35.1856ZM29.6133 38.5734C29.5742 39.2576 29.7528 39.4468 30.4058 39.4468H37.5049C38.0965 39.4468 38.3253 39.1519 38.1914 38.5734H29.6133ZM39.3076 12.4944C39.2495 12.5989 39.1973 12.7066 39.1513 12.817C38.3812 14.7974 37.5998 16.7778 36.8352 18.7749C36.7481 19.1399 36.6977 19.5126 36.6845 19.8875C38.5597 18.4356 39.9327 14.4914 39.3076 12.4944ZM23.8647 23.509C23.9038 24.8552 25.4107 26.4907 26.8339 26.7577C27.1129 26.3127 27.1911 26.3071 27.4311 26.8022C27.5929 27.136 27.6989 27.4976 27.8385 27.8592L28.1064 27.3029C28.0313 27.109 27.9378 26.9228 27.8273 26.7466C27.2692 26.0012 26.7446 25.2613 26.1976 24.5214C26.1466 24.4412 26.0699 24.3804 25.98 24.349C25.2074 24.2822 24.4717 23.9901 23.8647 23.509ZM43.9901 23.509C43.3775 23.9949 42.6373 24.2942 41.8582 24.3712C41.78 24.3712 41.6963 24.4992 41.6349 24.5826C41.2387 25.1389 40.8201 25.6952 40.4573 26.3127C40.2855 26.6029 40.1735 26.9244 40.128 27.2584C40.128 27.4197 40.2676 27.6089 40.3457 27.7869C40.502 27.4197 40.6247 27.0692 40.7922 26.7355C40.9596 26.4017 41.0322 26.3794 41.3001 26.652C42.0036 26.4385 42.6309 26.0284 43.1077 25.4704C43.5845 24.9123 43.8907 24.2297 43.9901 23.5034V23.509ZM38.2249 38.1617C38.2249 37.7835 38.0407 37.5609 37.7226 37.5609C35.1925 37.5609 32.6643 37.5609 30.1379 37.5609C29.7974 37.5609 29.6188 37.8113 29.6467 38.1617H38.2249ZM31.3378 44.9763H31.2206C31.2206 45.1544 31.1536 45.3824 31.2206 45.5326C31.2766 45.609 31.3485 45.6724 31.4313 45.7184C31.5142 45.7645 31.606 45.7922 31.7006 45.7997C33.174 45.7997 34.6418 45.7997 36.1096 45.7997C36.1796 45.8103 36.251 45.8057 36.319 45.7862C36.387 45.7668 36.45 45.7329 36.5036 45.6869C36.5572 45.641 36.6003 45.584 36.6298 45.5199C36.6593 45.4559 36.6746 45.3862 36.6746 45.3157C36.6746 45.2452 36.6593 45.1755 36.6298 45.1114C36.6003 45.0473 36.5572 44.9904 36.5036 44.9444C36.45 44.8985 36.387 44.8646 36.319 44.8451C36.251 44.8257 36.1796 44.8211 36.1096 44.8317H32.9284C32.8337 44.8286 32.7416 44.8625 32.6717 44.9263C32.1806 45.4937 31.8513 45.5159 31.3378 44.9763ZM47.0821 11.1592C46.1835 11.8769 44.3697 14.2967 44.1408 15.0867C45.7649 15.0589 47.4393 12.8226 47.0821 11.1592ZM20.7393 11.1259C20.6054 13.173 22.062 15.0978 23.7029 15.0922C23.4406 14.2411 21.9114 12.1995 20.7393 11.1259ZM38.8444 12.2385L38.7551 12.155L37.3933 13.785C37.1527 14.0306 36.9709 14.3274 36.8617 14.653C36.7525 14.9787 36.7186 15.3247 36.7626 15.6652C36.7822 15.9764 36.7822 16.2886 36.7626 16.5998V17.4676H36.8408L38.8444 12.2385ZM43.6051 17.0003C44.9334 17.056 46.4514 15.6986 46.3956 14.5081C45.9316 15.0186 45.3081 15.3578 44.6264 15.4705C43.8339 15.5373 43.739 16.0268 43.672 16.6165C43.6441 16.7611 43.6274 16.8779 43.6051 17.0226V17.0003ZM24.261 17.0003C24.1717 16.5831 24.0991 16.1937 24.0043 15.8099C23.9893 15.7668 23.9651 15.7276 23.9332 15.6949C23.9014 15.6622 23.8628 15.6369 23.8201 15.6207C22.9375 15.4994 22.1135 15.1111 21.4593 14.5081C21.4091 15.7264 22.8825 17.0393 24.261 17.0281V17.0003ZM43.5325 19.0364C44.6878 19.181 45.7649 18.0183 45.7649 16.7166C45.1612 17.2015 44.4231 17.4907 43.6497 17.5455L43.5325 19.0364ZM25.7846 23.8149C25.5391 23.2253 25.3047 22.6523 25.0647 22.0793C25.0525 22.0448 25.0333 22.0132 25.0083 21.9864C24.9834 21.9596 24.9532 21.9382 24.9196 21.9235C24.3894 21.74 23.8592 21.5675 23.3401 21.4006C23.2397 22.4854 24.4061 23.687 25.7846 23.8149ZM42.0591 23.8149C43.432 23.6981 44.6543 22.4298 44.498 21.3951C43.9902 21.5675 43.4711 21.7344 42.9521 21.918C42.8763 21.9485 42.8146 22.006 42.7791 22.0793C42.5335 22.6467 42.3047 23.2197 42.0591 23.8149ZM36.0762 43.5522H33.4363C33.404 43.5518 33.372 43.5579 33.3422 43.5704C33.3125 43.5828 33.2856 43.6013 33.2633 43.6245C33.0847 43.8693 32.9117 44.1196 32.7052 44.3978H36.0538L36.0762 43.5522ZM31.3267 12.7391C31.4773 11.6989 31.4215 11.5097 30.8132 10.7921C30.5565 10.4973 30.3053 10.1969 30.0542 9.90203C29.803 9.60719 29.4961 9.21222 29.1779 8.87288C29.4697 10.3543 30.2214 11.7069 31.3267 12.7391ZM45.0952 19.1754L43.4209 19.665L43.0079 21.4062C44.2636 21.1392 45.1343 20.1823 45.0952 19.1754ZM22.7708 19.1754C22.6704 20.1323 23.7922 21.3617 24.8247 21.3617L24.4228 19.6928L22.7708 19.1754ZM34.8316 39.864H31.8122V40.704C32.6047 40.704 33.3805 40.704 34.1507 40.704C34.1822 40.7006 34.2128 40.6909 34.2406 40.6757C34.2683 40.6604 34.2928 40.6398 34.3125 40.615C34.4856 40.3758 34.6474 40.131 34.8316 39.864ZM50.1796 40.2701C49.9787 39.9308 49.8112 40.0698 49.6215 40.2089C48.3527 41.2059 46.9836 42.0691 45.5361 42.7845C45.4774 42.8171 45.4214 42.8543 45.3687 42.8958L45.8319 43.7414C46.1779 43.352 46.4793 42.9514 46.8365 42.6288C47.6703 41.8462 48.6095 41.1834 49.627 40.6595C49.8226 40.5466 50.0076 40.4162 50.1796 40.2701ZM22.436 42.8902C21.9393 42.6232 21.4537 42.4007 21.0072 42.1114C20.0473 41.4884 19.1097 40.8375 18.1609 40.1922C17.9879 40.0698 17.826 39.9419 17.6362 40.2645C17.7956 40.4034 17.9654 40.5298 18.1441 40.6428C19.6517 41.3409 20.9758 42.3788 22.0118 43.6746L22.436 42.8902ZM36.0762 42.3339H34.6753C34.4379 42.3241 34.2052 42.4013 34.0211 42.551C33.837 42.7006 33.7143 42.9124 33.6763 43.1461H36.0762V42.3339ZM29.5128 37.2717C29.8588 37.2272 30.1658 37.1604 30.4783 37.1493C31.0364 37.1493 31.6392 37.1493 32.214 37.1493H32.9284C32.5601 36.4984 32.3703 36.4372 31.7341 36.6709C31.4164 36.7902 31.0781 36.8452 30.7389 36.8328C30.3997 36.8204 30.0664 36.7408 29.7584 36.5986L29.4291 36.4539L29.5128 37.2717ZM35.4734 39.864L35.3953 39.7861C35.288 39.8672 35.1906 39.9606 35.1051 40.0643C34.1618 41.3938 33.2242 42.7345 32.281 44.064C32.2085 44.1641 32.0466 44.2031 31.9573 44.2977C31.868 44.3922 31.6671 44.5591 31.6615 44.6982C31.6603 44.7466 31.6706 44.7947 31.6917 44.8383C31.7127 44.882 31.7439 44.9201 31.7826 44.9494C31.8213 44.9788 31.8664 44.9985 31.9142 45.0071C31.9621 45.0156 32.0113 45.0127 32.0578 44.9986C32.1524 44.9835 32.2371 44.9318 32.2936 44.8547C32.35 44.7776 32.3736 44.6813 32.3592 44.5869C32.3538 44.4431 32.3886 44.3006 32.4596 44.1753C33.3917 42.829 34.3349 41.4995 35.2502 40.1588L35.4734 39.864ZM33.9442 41.1157H31.7787V41.9223C32.2754 41.9223 32.7666 41.9223 33.2521 41.9223C33.2937 41.9185 33.334 41.9062 33.3705 41.8861C33.407 41.8659 33.4389 41.8385 33.4642 41.8055C33.6261 41.6052 33.7712 41.3827 33.9442 41.1324V41.1157ZM31.8569 23.7593L33.5312 23.2809L31.8569 22.0626V23.7593ZM41.4954 28.4544C41.8405 28.2266 42.1353 27.931 42.3618 27.5857C42.5882 27.2404 42.7416 26.8526 42.8125 26.4462L41.4954 27.1082V28.4544ZM38.3253 37.2995L38.37 36.7432C38.041 36.8654 37.691 36.9209 37.3402 36.9066C36.9895 36.8922 36.6451 36.8083 36.3273 36.6597C35.7692 36.4205 35.4902 36.5485 35.2502 37.1437C35.9869 37.1437 36.718 37.1437 37.4491 37.1437C37.7443 37.1766 38.037 37.2287 38.3253 37.2995ZM36.0929 41.1268C35.0604 41.0378 34.893 41.1268 34.5135 41.939H36.0929V41.1268ZM34.3293 23.648C34.5927 23.9736 34.9383 24.2235 35.3306 24.3721C35.7229 24.5207 36.1478 24.5626 36.5617 24.4936C36.2811 24.1895 35.9332 23.9547 35.5457 23.8079C35.1582 23.6611 34.7417 23.6064 34.3293 23.648ZM33.8437 23.648C33.4308 23.6071 33.0141 23.6627 32.6265 23.8105C32.239 23.9582 31.8914 24.194 31.6113 24.4992C32.0256 24.5641 32.4497 24.5197 32.8414 24.3703C33.2331 24.221 33.5787 23.972 33.8437 23.648ZM39.3411 24.6827C39.2493 25.0451 39.2602 25.4256 39.3725 25.7822C39.4849 26.1387 39.6942 26.4571 39.9773 26.7021C40.0605 26.3395 40.0453 25.9614 39.9335 25.6065C39.8217 25.2517 39.6173 24.9329 39.3411 24.6827ZM40.4852 31.4807C40.5148 31.0972 40.4345 30.7132 40.2537 30.3734C40.0729 30.0337 39.799 29.7521 39.4639 29.5614C39.4601 29.9409 39.5515 30.3152 39.7299 30.6504C39.9083 30.9856 40.1679 31.271 40.4852 31.4807ZM37.5942 26.3405C37.839 26.6377 38.1643 26.8586 38.5313 26.9769C38.8984 27.0952 39.2918 27.106 39.6648 27.0081C39.4024 26.7342 39.0757 26.5298 38.7142 26.4132C38.3527 26.2967 37.9678 26.2717 37.5942 26.3405ZM33.0791 42.3451H31.7787V43.1128C32.5433 43.3909 32.7666 42.8346 33.0791 42.3451ZM28.5138 27.0303C28.8794 27.1166 29.2618 27.101 29.6191 26.9853C29.9764 26.8695 30.2949 26.658 30.5397 26.3739C30.1741 26.2863 29.7914 26.3012 29.4338 26.4171C29.0762 26.533 28.7578 26.7452 28.5138 27.0303ZM38.4537 35.4248C38.8496 35.4595 39.248 35.3958 39.6133 35.2395C39.9785 35.0832 40.2992 34.8392 40.5466 34.5291C40.1503 34.4904 39.7506 34.5522 39.3846 34.7087C39.0187 34.8653 38.6985 35.1117 38.4537 35.4248ZM37.4268 34.2232C37.0756 34.3833 36.7777 34.6401 36.568 34.9634C36.3584 35.2867 36.2458 35.6629 36.2436 36.0478C36.5765 35.8646 36.8588 35.6021 37.0652 35.2837C37.2717 34.9653 37.3959 34.601 37.4268 34.2232ZM31.8457 36.3371C31.5314 36.1204 31.1612 35.9983 30.7792 35.9855C30.3972 35.9727 30.0196 36.0696 29.6914 36.2648C30.0178 36.4611 30.3892 36.5708 30.7703 36.5834C31.1513 36.5961 31.5292 36.5113 31.868 36.3371H31.8457ZM38.1356 35.1355C38.4064 34.8612 38.5937 34.5159 38.6757 34.1398C38.7577 33.7637 38.731 33.3721 38.5988 33.0105C38.3527 33.2995 38.1833 33.6456 38.1063 34.0169C38.0293 34.3882 38.047 34.7728 38.1579 35.1355H38.1356ZM27.1464 26.8579C26.9648 27.1977 26.8836 27.582 26.9123 27.966C26.9409 28.35 27.0782 28.718 27.3083 29.0274C27.4652 28.6811 27.5326 28.3011 27.5044 27.9221C27.4761 27.5431 27.353 27.1772 27.1464 26.8579ZM36.7961 23.3198C36.8516 23.6991 37.016 24.0544 37.2695 24.3426C37.5231 24.6308 37.8549 24.8398 38.2249 24.9442C38.1418 24.576 37.9676 24.2345 37.718 23.9507C37.4684 23.667 37.1515 23.4501 36.7961 23.3198ZM29.8253 35.3191C29.6019 35.003 29.2925 34.757 28.9336 34.6102C28.5747 34.4634 28.1812 34.4217 27.7994 34.4902C28.041 34.7858 28.3529 35.0164 28.7067 35.1612C29.0606 35.306 29.4451 35.3602 29.8253 35.3191ZM36.4166 36.3872C36.7515 36.5781 37.1333 36.672 37.5188 36.6583C37.9044 36.6445 38.2785 36.5236 38.5988 36.3093C38.2588 36.1349 37.8796 36.0505 37.4975 36.0641C37.1154 36.0778 36.7432 36.189 36.4166 36.3872ZM40.5466 29.2388C40.4 28.8715 40.1614 28.5478 39.8537 28.2985C39.5459 28.0492 39.1792 27.8826 38.7886 27.8147C38.9352 28.182 39.1738 28.5057 39.4815 28.755C39.7893 29.0043 40.156 29.1708 40.5466 29.2388ZM40.8926 29.0775C41.1015 28.7481 41.2238 28.3716 41.2482 27.9827C41.2726 27.5938 41.1983 27.205 41.0322 26.8523C40.8218 27.1811 40.6987 27.5577 40.6743 27.9469C40.6499 28.3361 40.725 28.7251 40.8926 29.0775ZM30.8858 34.1175C30.8964 34.5034 31.0163 34.8784 31.2315 35.1992C31.4468 35.5201 31.7487 35.7738 32.1024 35.931C32.0668 35.5518 31.9369 35.1873 31.7245 34.8707C31.512 34.5541 31.2238 34.2952 30.8858 34.1175ZM30.0988 25.3503C30.4057 25.5848 30.7725 25.7285 31.1575 25.7649C31.5424 25.8013 31.9298 25.7289 32.2754 25.5561C31.9589 25.343 31.5937 25.2125 31.2135 25.1766C30.8332 25.1406 30.4499 25.2003 30.0988 25.3503ZM31.4104 23.2976C31.0371 23.4383 30.706 23.6716 30.4482 23.9752C30.1904 24.2789 30.0145 24.643 29.937 25.0332C30.3111 24.8938 30.643 24.661 30.901 24.3571C31.159 24.0532 31.3344 23.6884 31.4104 23.2976ZM41.9307 29.5448C41.5979 29.7392 41.3274 30.0239 41.1505 30.3656C40.9736 30.7073 40.8978 31.0921 40.9317 31.4751C41.2461 31.2615 41.5021 30.9731 41.6766 30.6361C41.851 30.299 41.9383 29.9239 41.9307 29.5448ZM29.3677 27.8759C28.986 27.9212 28.6253 28.0748 28.3286 28.3184C28.0318 28.5619 27.8113 28.8852 27.6934 29.2499C28.0669 29.1742 28.4155 29.0068 28.7079 28.763C29.0002 28.5192 29.227 28.2067 29.3677 27.8536V27.8759ZM29.63 32.9326C29.532 33.2993 29.5271 33.6845 29.6158 34.0535C29.7045 34.4226 29.8839 34.7638 30.1379 35.0465C30.2563 34.6781 30.2716 34.2844 30.1821 33.908C30.0926 33.5315 29.9017 33.1866 29.63 32.9103V32.9326ZM39.2741 31.4473C38.9951 32.1649 39.2741 33.2552 39.7541 33.5445C39.8588 33.1794 39.8697 32.794 39.7859 32.4236C39.702 32.0533 39.526 31.7099 39.2741 31.425V31.4473ZM28.9212 31.4195C28.6684 31.7127 28.494 32.0647 28.414 32.443C28.334 32.8212 28.351 33.2135 28.4636 33.5834C28.7201 33.2879 28.8967 32.932 28.9768 32.5495C29.0569 32.1669 29.0378 31.7703 28.9212 31.3972V31.4195ZM35.479 34.8351C35.0381 35.0521 34.6697 36.3371 35.0325 36.9212C35.2773 36.6347 35.4463 36.2917 35.5243 35.9235C35.6022 35.5553 35.5867 35.1735 35.479 34.8129V34.8351ZM32.7219 34.7795C32.4708 35.5972 32.7219 36.5819 33.2019 36.8934C33.308 36.5258 33.3197 36.1374 33.2358 35.7642C33.152 35.3909 32.9752 35.0446 32.7219 34.7572V34.7795ZM35.892 25.5895C36.2436 25.7321 36.625 25.7864 37.0026 25.7476C37.3802 25.7088 37.7424 25.5781 38.0575 25.367C37.7125 25.1955 37.3257 25.1253 36.9423 25.1647C36.5589 25.2041 36.1946 25.3515 35.892 25.5895ZM26.2814 29.5392C26.245 29.9179 26.3201 30.299 26.4975 30.6359C26.6749 30.9728 26.947 31.2509 27.2804 31.4362C27.2844 31.0622 27.1952 30.6932 27.0209 30.3621C26.8465 30.031 26.5924 29.7482 26.2814 29.5392ZM27.6655 31.4528C27.9952 31.2636 28.2629 30.9832 28.4362 30.6456C28.6095 30.308 28.6811 29.9276 28.6422 29.5503C28.3322 29.7603 28.0803 30.0446 27.9097 30.3771C27.739 30.7095 27.655 31.0795 27.6655 31.4528ZM40.1001 33.678C40.4745 33.5502 40.8105 33.3303 41.0769 33.0385C41.3432 32.7468 41.5314 32.3927 41.6238 32.0091C41.2452 32.1346 40.9057 32.3559 40.6386 32.6514C40.3716 32.9468 40.186 33.3063 40.1001 33.6947V33.678ZM28.2012 26.7633C28.4782 26.4979 28.6829 26.1667 28.7962 25.8009C28.9094 25.435 28.9275 25.0464 28.8487 24.6716C28.5605 24.9289 28.348 25.2595 28.234 25.628C28.1199 25.9964 28.1086 26.3889 28.2012 26.7633ZM33.6261 36.7154V36.8656C33.76 36.9657 33.894 37.1215 34.0391 37.1437C34.0894 37.151 34.1407 37.1466 34.189 37.1308C34.2373 37.115 34.2813 37.0883 34.3176 37.0527C34.3538 37.0172 34.3812 36.9737 34.3978 36.9258C34.4144 36.8779 34.4196 36.8268 34.413 36.7766C34.4186 36.7264 34.4122 36.6756 34.3942 36.6285C34.3762 36.5813 34.3471 36.5391 34.3095 36.5054C34.2718 36.4716 34.2266 36.4473 34.1776 36.4345C34.1287 36.4217 34.0773 36.4207 34.0279 36.4317C33.8828 36.4539 33.76 36.6097 33.6261 36.7154ZM36.0706 40.704V39.7583C35.774 40.0333 35.5218 40.3523 35.3227 40.704H36.0706ZM29.4123 36.0256L30.3165 35.7196V35.6362H29.3789L29.4123 36.0256ZM37.784 35.8031L38.4872 35.931C38.4314 35.8086 38.4146 35.6918 38.3644 35.6807C38.1802 35.6306 37.9514 35.5193 37.7896 35.8031H37.784ZM32.281 43.5912H31.7676V44.1085L32.281 43.5912Z" fill="#24213D"/>
<path d="M68 49.3877V54.7726H0V49.3877H68Z" fill="#4A8FCC"/>
<path d="M54.8063 66.9889H52.5739V58.8447H58.1103V66.9833H55.8779V60.9253H54.7617L54.8063 66.9889Z" fill="white"/>
<path d="M31.5666 67C30.8523 67 30.177 67 29.5016 67C29.4235 67 29.3119 66.8721 29.2784 66.7775C28.9212 65.8541 28.5752 64.9306 28.2236 63.996C28.1927 63.9061 28.1365 63.8269 28.0617 63.768V66.9833H25.8739V65.6037C25.8739 64.7582 25.8739 63.9349 25.8739 63.067C25.8854 62.888 25.9561 62.7178 26.0749 62.5831C26.3134 62.3026 26.5727 62.0404 26.8506 61.7987C26.8977 61.768 26.9381 61.728 26.9692 61.6813C27.0002 61.6345 27.0214 61.5819 27.0313 61.5267C27.0412 61.4714 27.0397 61.4148 27.0269 61.3601C27.0141 61.3055 26.9902 61.2541 26.9567 61.209C26.5883 60.547 26.2646 59.8683 25.9242 59.1897C25.8739 59.084 25.8237 58.9783 25.7567 58.8225C26.4711 58.8225 27.1464 58.8225 27.8217 58.8225C27.9054 58.8225 28.0115 58.9505 28.0506 59.045C28.4357 59.9685 28.804 60.8919 29.2393 61.8265V58.8503H31.4718C31.4718 60.1409 31.4718 61.4148 31.4718 62.6943C31.4511 62.7998 31.3962 62.8956 31.3155 62.9669C31.0309 63.2673 30.7574 63.5621 30.4393 63.8403C30.3678 63.8898 30.3185 63.9652 30.3019 64.0503C30.2852 64.1355 30.3025 64.2237 30.35 64.2964C30.7239 65.0808 31.0755 65.8708 31.4327 66.6607C31.4662 66.7553 31.5053 66.861 31.5666 67Z" fill="white"/>
<path d="M42.5335 60.9253V57.76H44.7659V58.817H47.7183V64.6247C47.7406 64.9418 47.6944 65.2601 47.5828 65.558C47.4713 65.8558 47.297 66.1264 47.0717 66.3515C46.8465 66.5766 46.5754 66.751 46.2768 66.8628C45.9782 66.9747 45.659 67.0215 45.3408 67H43.3539V64.9306H45.4412V60.9253H42.5335Z" fill="white"/>
<path d="M32.8503 58.8447H38.4314V66.9833H36.1989V60.9197H32.8503V58.8447Z" fill="white"/>
<path d="M13.9862 66.9888H11.7538V60.9308H9.26461V58.8503C10.3473 58.8503 11.4245 58.8002 12.5016 58.8503C12.9141 58.8943 13.2954 59.0895 13.5717 59.3978C13.8481 59.7061 13.9997 60.1057 13.9974 60.5191C13.9974 62.6164 13.9974 64.7192 13.9974 66.8164C13.9974 66.874 13.9937 66.9316 13.9862 66.9888Z" fill="white"/>
<path d="M19.0036 66.9722V58.8503H21.236V66.9722H19.0036Z" fill="white"/>
<path d="M24.7298 58.8447V66.9722H22.4974V58.8447H24.7298Z" fill="white"/>
<path d="M15.6271 60.9142H14.9127V58.8503H17.8595V64.0294H15.6271V60.9142Z" fill="white"/>
<path d="M51.413 64.0349H49.1806V60.9197H48.4885V58.8391H51.413V64.0349Z" fill="white"/>
<path d="M32.8503 66.9833V62.1714H35.0827V66.9833H32.8503Z" fill="white"/>
<path d="M36.5673 39.9141C38.5233 40.0809 40.4924 39.8237 42.3392 39.1602C44.186 38.4966 45.8669 37.4425 47.2663 36.0701C48.4373 36.9833 49.3904 38.1442 50.0568 39.469C49.7926 39.5868 49.5387 39.7264 49.2978 39.8862C46.9844 41.734 44.2894 43.0486 41.4061 43.7358C39.8303 44.0999 38.2071 44.2162 36.5952 44.0807L36.5673 39.9141ZM45.084 41.6664L44.1743 39.3522L42.5 40.0086L43.4153 42.3228L44.1018 42.0391L43.5325 40.4759L43.7836 40.348L44.4143 41.939L45.084 41.6664ZM40.5801 42.2783L39.8936 42.4508L40.0666 43.1906C40.3569 43.1239 40.6248 43.0849 40.8703 43.0071C40.9991 42.977 41.113 42.9024 41.1917 42.7964C41.2704 42.6904 41.3088 42.5601 41.3001 42.4285C41.2108 41.7665 41.0601 41.1157 40.9317 40.4537L40.0276 40.6372L39.8992 40.348L39.2072 40.5204L39.4471 41.5718L40.3513 41.3882L40.5801 42.2783ZM41.1382 40.398C41.434 40.5983 41.1382 41.0878 41.6963 41.0878L41.9363 41.8166L42.6451 41.6052L42.1819 40.0865L41.1382 40.398Z" fill="#FCFCFC"/>
<path d="M31.2541 39.914V44.0807C30.3165 44.0807 29.4235 44.153 28.5473 44.0807C25.1459 43.7362 21.9094 42.4489 19.2045 40.3646C18.9311 40.1588 18.6464 39.9419 18.3674 39.7583C18.1696 39.6574 17.9644 39.5719 17.7534 39.5024C18.4312 38.18 19.3644 37.0042 20.4993 36.0422C23.5578 38.8626 27.1185 40.2367 31.2541 39.914ZM26.2311 42.7845L26.9288 42.9347L27.0906 42.3284C27.0906 42.8846 27.3306 43.2017 27.9501 43.1461C27.9501 43.0571 27.9501 42.9625 27.911 42.868C27.8608 42.5397 27.671 42.167 28.151 41.9779C28.1845 41.9779 28.2068 41.9111 28.2124 41.8666C28.3017 41.505 28.3854 41.1434 28.4747 40.754L27.7659 40.6094L27.5706 41.2547C27.4143 40.4648 27.3027 40.3591 26.7334 40.4203L26.7669 40.5816C26.8227 40.9154 27.0571 41.2881 26.5548 41.4995C26.5102 41.4995 26.4879 41.6107 26.4767 41.6775C26.3874 42.0224 26.3093 42.3784 26.2311 42.7845ZM30.5788 41.1156L28.8152 40.8542L28.7035 41.6052L29.7137 41.7776L29.4737 43.4465L30.2049 43.5578L30.5788 41.1156ZM22.0509 41.1657C22.3523 40.5538 22.6481 39.9864 22.9215 39.4022C22.953 39.3422 22.972 39.2764 22.9775 39.2089C22.983 39.1414 22.9748 39.0734 22.9535 39.0091C22.9322 38.9448 22.8981 38.8854 22.8533 38.8344C22.8085 38.7835 22.7539 38.742 22.6927 38.7124C22.4025 38.54 22.09 38.4065 21.7718 38.2452L21.4258 38.9405L22.1402 39.3132L21.3867 40.843L22.0509 41.1657ZM25.7009 40.0531L24.9586 42.4229L25.673 42.6343L26.4097 40.2756L25.7009 40.0531ZM24.6517 39.6748L23.7754 41.9668L24.4787 42.2227L25.3493 39.9029L24.6517 39.6748ZM23.4406 39.1074C23.0946 39.6637 23.0834 39.736 23.3066 39.9641L22.9941 40.6539L23.675 40.9543L24.3224 39.4968L23.4406 39.1074ZM29.1612 43.3909L29.3677 42.0224L28.6366 41.9111L28.4301 43.2796L29.1612 43.3909Z" fill="#FAFAFB"/>
<path d="M34.3628 1.66882C34.6432 2.21869 34.9524 2.75347 35.2892 3.27095C36.0144 4.34498 36.3618 5.62838 36.2771 6.92023C36.2101 11.849 36.2771 16.7833 36.2771 21.7176V22.0681H36.2157C36.1703 21.9718 36.1181 21.8788 36.0594 21.79C35.7279 21.2122 35.343 20.6665 34.9097 20.16C34.6988 19.9504 34.5361 19.6975 34.433 19.4189C34.3298 19.1403 34.2888 18.8428 34.3125 18.5468C34.3125 13.0339 34.3125 7.52103 34.3125 2.01373V1.66882H34.3628Z" fill="#FDFDFE"/>
<path d="M30.5341 32.3874C30.9025 31.7532 31.2206 31.1691 31.5722 30.6073C31.6374 30.5206 31.6727 30.4152 31.6727 30.3069C31.6727 30.1986 31.6374 30.0931 31.5722 30.0065C31.2206 29.4502 30.9025 28.8605 30.5341 28.2319C31.2429 28.2319 31.9071 28.2319 32.5657 28.2319C32.6808 28.2423 32.7963 28.2169 32.8962 28.1591C32.9962 28.1013 33.0757 28.014 33.1238 27.9093C33.4307 27.353 33.7712 26.7967 34.1284 26.1514C34.4175 26.5936 34.6803 27.0524 34.9153 27.5254C34.992 27.7767 35.1612 27.9897 35.3889 28.1218C35.6167 28.2539 35.8861 28.2952 36.1431 28.2375C36.6766 28.2066 37.2114 28.2066 37.7449 28.2375C37.5329 28.6623 37.2905 29.0713 37.0194 29.4613C36.7938 29.6875 36.6671 29.9935 36.6671 30.3124C36.6671 30.6314 36.7938 30.9374 37.0194 31.1636C37.2893 31.5552 37.5299 31.9661 37.7393 32.393C37.0361 32.393 36.3831 32.393 35.7357 32.393C35.6118 32.3754 35.4855 32.3998 35.3772 32.4624C35.2689 32.5249 35.1849 32.622 35.1385 32.7379C34.8316 33.2942 34.4856 33.8505 34.1339 34.4846C33.8383 34.0318 33.5699 33.5619 33.3303 33.0772C33.2526 32.8314 33.0848 32.6238 32.8602 32.4959C32.6357 32.368 32.3711 32.3293 32.1192 32.3874C31.5913 32.418 31.062 32.418 30.5341 32.3874Z" fill="#FDFDFE"/>
<path d="M33.7879 19.042C33.1963 18.7082 32.5991 18.3911 32.0187 18.0406C31.9679 17.9926 31.9274 17.9348 31.8996 17.8708C31.8717 17.8067 31.8572 17.7377 31.8569 17.6679C31.8569 15.0719 31.8569 12.4758 31.8569 9.8798C31.8569 8.36112 31.8569 6.83688 31.8569 5.3182C31.8606 5.08869 31.92 4.86348 32.0299 4.66177C32.588 3.64932 33.1461 2.65355 33.7823 1.57434L33.7879 19.042Z" fill="#FAF9FB"/>
<path d="M20.5272 8.65588L20.8398 8.92847C22.2797 10.2747 23.675 11.6654 25.1707 12.9449C25.7608 13.4163 26.201 14.0484 26.4378 14.7643C26.6745 15.4802 26.6978 16.2492 26.5046 16.978C26.2156 18.1565 26.1232 19.3744 26.2311 20.5828C26.3913 21.9816 26.923 23.3124 27.7715 24.4379C27.8875 24.596 27.9651 24.7788 27.998 24.9719C28.0309 25.165 28.0184 25.3631 27.9613 25.5505C27.9222 25.723 27.8775 25.8899 27.8162 26.1068C27.5371 25.723 27.258 25.4003 27.046 25.0443C25.5407 22.7944 24.7279 20.1551 24.7075 17.4509C24.7087 16.1397 24.2968 14.8613 23.5299 13.796C23.0387 13.0951 22.475 12.4442 21.9393 11.7767C21.6323 11.3984 21.3142 11.0201 20.9961 10.6641C20.5809 10.0822 20.4125 9.36069 20.5272 8.65588Z" fill="#FBFBFC"/>
<path d="M40.2955 25.7064C40.1504 25.4115 40.0053 25.1501 39.8936 24.8775C39.88 24.8225 39.8785 24.7652 39.8891 24.7095C39.8997 24.6538 39.9222 24.6011 39.955 24.5548C40.6749 23.6162 41.1848 22.5348 41.4505 21.3833C41.7162 20.2319 41.7315 19.0371 41.4954 17.8793C41.3838 17.2117 41.2945 16.5386 41.2387 15.8655C41.1959 15.4203 41.2578 14.9713 41.4196 14.5541C41.5814 14.1369 41.8386 13.7631 42.1707 13.4623C43.845 11.8769 45.5194 10.3137 47.1937 8.7394C47.1937 8.7394 47.2328 8.7394 47.3053 8.68933C47.3768 9.28756 47.2514 9.89273 46.9481 10.4138C46.5575 10.9256 46.1165 11.3985 45.7259 11.9103C45.0896 12.7503 44.4199 13.5792 43.8674 14.4692C43.3177 15.4421 43.0456 16.5463 43.0804 17.6623C43.0225 20.5202 42.0767 23.2898 40.3736 25.5895L40.2955 25.7064Z" fill="#FBFBFC"/>
<path d="M13.5286 38.6457L16.1852 35.6028L18.4176 37.4552C18.0492 38.0449 17.7088 38.5678 17.3907 39.1241C17.2837 39.2844 17.2149 39.4669 17.1895 39.6577C17.1642 39.8485 17.1829 40.0426 17.2443 40.2251C17.3057 40.4076 17.4081 40.5737 17.5437 40.7107C17.6794 40.8477 17.8447 40.9519 18.0269 41.0155C19.0969 41.52 20.0786 42.1923 20.9347 43.007C21.2067 43.2893 21.4411 43.6053 21.6323 43.9472C21.6579 44.0173 21.6642 44.0931 21.6504 44.1664C21.6367 44.2398 21.6035 44.3082 21.5542 44.3644C21.393 44.4549 21.2084 44.4956 21.024 44.4812C20.9347 44.4812 20.8398 44.3644 20.7561 44.2921L13.59 38.7292C13.5669 38.7033 13.5464 38.6754 13.5286 38.6457Z" fill="#FCFCFC"/>
<path d="M49.3982 37.472L51.6307 35.6195L54.304 38.6402C53.2436 39.4412 52.1832 40.2201 51.1563 41.0267C49.8001 42.0948 48.4662 43.1851 47.1211 44.2643C47.0151 44.3478 46.9091 44.4701 46.7919 44.4868C46.6264 44.5115 46.4574 44.4802 46.3119 44.3978C46.2726 44.345 46.2474 44.2831 46.2386 44.2179C46.2299 44.1527 46.2378 44.0864 46.2617 44.0251C46.4126 43.7303 46.6001 43.4556 46.8198 43.2074C47.6729 42.31 48.6828 41.5748 49.8001 41.0378C49.9821 40.9739 50.1472 40.8696 50.2828 40.7327C50.4184 40.5959 50.521 40.4301 50.5829 40.2478C50.6447 40.0656 50.6642 39.8717 50.6397 39.6809C50.6153 39.4901 50.5476 39.3073 50.4419 39.1464C50.107 38.6012 49.7666 38.0728 49.3982 37.472Z" fill="#FCFCFC"/>
<path d="M20.0473 9.77962C20.016 9.77025 19.9861 9.75718 19.958 9.74068C17.5719 8.25094 15.4424 6.38756 13.6513 4.22225C12.9625 3.36099 12.4608 2.36645 12.1779 1.30171C12.1581 1.21547 12.1432 1.12817 12.1333 1.04025C12.1333 0.995745 12.1333 0.951242 12.1333 0.867798L12.3789 1.07363L19.8464 8.00504C19.9181 8.06248 19.9746 8.13673 20.0106 8.22117C20.0466 8.30561 20.0611 8.39763 20.0529 8.48902C20.0305 8.90068 20.0473 9.35127 20.0473 9.77962Z" fill="#FBFBFC"/>
<path d="M55.7383 0.89563C55.6881 1.12927 55.6546 1.34066 55.5932 1.54649C55.3156 2.47458 54.8692 3.34387 54.2761 4.11101C52.4659 6.33148 50.2989 8.23757 47.8634 9.75182C47.8375 9.75563 47.8112 9.75563 47.7853 9.75182C47.7853 9.26229 47.7853 8.77831 47.7853 8.29433C47.7934 8.2089 47.8332 8.12957 47.8969 8.07182L55.6323 0.923445C55.6665 0.910166 55.7021 0.900833 55.7383 0.89563Z" fill="#FBFBFC"/>
<path d="M13.1546 4.41699C13.7127 5.05673 14.2708 5.72428 14.9015 6.33621C16.4452 7.86464 18.1606 9.21049 20.0138 10.3471C20.1078 10.3865 20.1846 10.4579 20.2306 10.5486C20.2766 10.6393 20.2888 10.7434 20.2649 10.8422C20.1779 11.6055 20.2775 12.3785 20.5552 13.0952C20.4156 13.0284 20.3319 12.9895 20.2538 12.945C17.9715 11.6204 16.0212 9.79616 14.5499 7.61012C13.8875 6.64934 13.4 5.57974 13.11 4.45037L13.1546 4.41699Z" fill="#FBFBFC"/>
<path d="M47.3444 13.0284C47.4835 12.4033 47.5601 11.766 47.5732 11.1258C47.5472 10.9251 47.5876 10.7214 47.6883 10.5457C47.789 10.37 47.9446 10.2319 48.1313 10.1523C50.598 8.62681 52.7902 6.69935 54.6165 4.45032C54.6165 4.45032 54.6947 4.45032 54.6947 4.41138L54.7337 4.44475C54.517 5.53732 54.0574 6.5676 53.3887 7.45987C53.3329 7.52662 53.2827 7.6045 53.2324 7.67682C51.7773 9.87457 49.8183 11.6956 47.5174 12.9894C47.4617 13.009 47.4034 13.0203 47.3444 13.0228V13.0284Z" fill="#FBFBFC"/>
<path d="M22.9773 22.2517C21.2971 21.6094 19.7746 20.6154 18.5125 19.3368C17.8626 18.6923 17.2706 17.9924 16.7433 17.2451C16.3537 16.6224 16.1594 15.898 16.1852 15.1646C16.28 15.2702 16.3303 15.3203 16.3749 15.3759C17.8309 17.1992 19.7616 18.5885 21.956 19.3924C22.1625 19.4647 22.3132 19.5426 22.3188 19.7929C22.3249 19.9045 22.3616 20.0122 22.4248 20.1044C22.7611 20.5642 22.9232 21.1279 22.8825 21.6954C22.8903 21.8841 22.9222 22.0711 22.9773 22.2517Z" fill="#FBFBFC"/>
<path d="M51.6195 15.2146C51.6363 15.4275 51.6363 15.6414 51.6195 15.8543C51.514 16.5269 51.2437 17.1632 50.8326 17.7068C49.3899 19.6154 47.4797 21.1229 45.285 22.0848C45.1828 22.124 45.0784 22.1575 44.9724 22.185L44.911 22.1349C44.9445 21.751 44.978 21.3616 45.0171 20.9834C45.0335 20.8659 45.0674 20.7515 45.1175 20.644C45.2571 20.3158 45.4022 19.9765 45.5696 19.6594C45.6315 19.5402 45.7346 19.4473 45.8598 19.3979C47.8625 18.6658 49.653 17.4525 51.0726 15.8655C51.2623 15.6541 51.4521 15.4371 51.6307 15.2202L51.6195 15.2146Z" fill="#FBFBFC"/>
<path d="M19.1152 25.0332C19.7738 25.5895 20.4045 26.1959 21.0909 26.7021C22.3335 27.6541 23.7992 28.2744 25.3493 28.5045C25.547 28.554 25.7354 28.6348 25.9074 28.7437C26.1865 28.8828 26.4655 29.0608 26.7334 29.1776C27.4311 29.4669 27.4534 29.4836 27.3362 30.1734C27.0125 29.8674 26.6832 29.5169 26.3148 29.2054C26.0693 28.9996 25.9521 29.0663 25.9632 29.3834C25.9744 29.7005 26.0302 30.0899 26.0749 30.496C25.7623 30.4459 25.4274 30.407 25.0982 30.3347C23.2493 29.9228 21.5616 28.9811 20.2426 27.6255C19.5746 26.9192 19.1757 26.002 19.1152 25.0332Z" fill="#FAFAFB"/>
<path d="M27.7213 32.3429C27.3027 32.1315 26.9288 31.9145 26.5381 31.7476C26.2646 31.6253 26.1586 31.7476 26.2534 31.9924C26.4041 32.4152 26.5939 32.8213 26.8116 33.283C26.393 33.2218 25.9465 33.1773 25.5167 33.0827C24.1507 32.7861 22.8689 32.1872 21.7663 31.3304C21.3506 30.9864 21.0161 30.5553 20.7865 30.0679C20.557 29.5804 20.4379 29.0485 20.438 28.51C20.5328 28.5768 20.5886 28.6046 20.6333 28.6435C22.1859 29.9659 24.101 30.7934 26.1307 31.0189C26.3024 31.0612 26.4625 31.141 26.5995 31.2525C26.9142 31.4504 27.2162 31.6678 27.5036 31.9034C27.6041 31.998 27.6431 32.1871 27.7213 32.3429Z" fill="#FBFBFC"/>
<path d="M43.806 25.3614C44.2439 24.632 44.5305 23.8224 44.6487 22.9805C44.6607 22.9357 44.6824 22.894 44.7123 22.8584C44.7422 22.8229 44.7795 22.7943 44.8217 22.7747C47.0886 21.9354 49.1022 20.5316 50.6707 18.697L50.8214 18.5691C50.7973 18.8153 50.7448 19.058 50.6651 19.2923C50.3789 19.9095 50.0468 20.5045 49.6717 21.0724C48.3897 23.005 46.5167 24.474 44.3306 25.2613C44.1911 25.3058 44.0515 25.3392 43.912 25.3726C43.8764 25.3726 43.8408 25.3689 43.806 25.3614Z" fill="#FBFBFC"/>
<path d="M17.0781 18.5858C17.4018 18.9252 17.6809 19.2367 17.9823 19.5315C19.3986 20.9656 21.1132 22.0727 23.0053 22.7747C23.0519 22.7957 23.0935 22.8264 23.1272 22.8648C23.1609 22.9032 23.1859 22.9484 23.2006 22.9972C23.3122 23.4033 23.3736 23.8261 23.502 24.2211C23.6303 24.616 23.8145 24.9776 23.9931 25.3949C23.8145 25.3448 23.6471 25.317 23.4852 25.2613C21.2895 24.4611 19.4068 22.984 18.1106 21.0446C17.5588 20.3692 17.1933 19.562 17.0502 18.7026C17.0529 18.6624 17.0624 18.6229 17.0781 18.5858Z" fill="#FBFBFC"/>
<path d="M15.4038 12.1829C15.7666 12.5723 16.068 12.9116 16.3861 13.2287C17.7365 14.596 19.4158 15.5958 21.264 16.1325C21.3448 16.1423 21.419 16.182 21.4718 16.2439C21.5246 16.3058 21.552 16.3852 21.5486 16.4663C21.5735 17.2129 21.799 17.9391 22.2016 18.5691C22.263 18.6526 22.2351 18.7972 22.263 18.9696C22.0509 18.8918 21.889 18.8306 21.7049 18.7638C19.3853 17.8274 17.4113 16.2016 16.0512 14.1076C15.6653 13.536 15.4416 12.8709 15.4038 12.1829Z" fill="#FBFBFC"/>
<path d="M45.5696 18.9752C45.578 18.8265 45.61 18.68 45.6645 18.5413C46.0451 17.9234 46.2603 17.2186 46.2896 16.4941C46.2896 16.3439 46.2896 16.2104 46.5184 16.1492C48.7915 15.4898 50.8074 14.1522 52.2948 12.3164L52.4232 12.1829C52.4247 12.6734 52.2997 13.1561 52.0604 13.5847C51.5449 14.5466 50.8757 15.4184 50.0791 16.1659C48.793 17.4107 47.2558 18.3684 45.5696 18.9752Z" fill="#FBFBFC"/>
<path d="M21.1579 15.604C20.8454 15.4872 20.5998 15.4037 20.3152 15.2869C18.184 14.3928 16.384 12.8611 15.1638 10.9033C14.6798 10.1843 14.45 9.32495 14.5108 8.46118C14.5443 8.46118 14.5778 8.46118 14.589 8.50012C16.1719 10.6642 18.2297 12.4393 20.6054 13.6903C20.7115 13.7374 20.8003 13.8163 20.8593 13.916C20.9183 14.0157 20.9447 14.1313 20.9347 14.2466C20.9274 14.469 20.948 14.6914 20.9961 14.9086C21.0184 15.1311 21.0854 15.337 21.1579 15.604Z" fill="#FBFBFC"/>
<path d="M46.7528 15.5763C46.8142 15.0645 46.8979 14.5861 46.9202 14.1076C46.9202 13.8907 47.043 13.8239 47.1881 13.7405C49.0375 12.7511 50.7071 11.4592 52.1274 9.91876C52.5404 9.45703 52.9199 8.96193 53.3887 8.48352C53.3655 8.8324 53.3227 9.17971 53.2603 9.52379C53.0371 10.3876 52.6148 11.1876 52.0269 11.8602C50.7436 13.4824 49.0421 14.7265 47.1044 15.4594L46.7528 15.5763Z" fill="#FBFBFC"/>
<path d="M42.1149 30.446C42.1428 30.0788 42.1819 29.7284 42.2042 29.3779C42.2265 29.0274 42.0703 29.0497 41.8805 29.2166C41.5345 29.5058 41.2108 29.8229 40.8982 30.1066C40.8576 30.0107 40.8374 29.9073 40.839 29.8031C40.8406 29.699 40.8639 29.5963 40.9075 29.5016C40.9511 29.4069 41.0139 29.3222 41.0921 29.2531C41.1702 29.1839 41.262 29.1317 41.3615 29.0997C41.4251 29.0791 41.4853 29.0491 41.5401 29.0107C42.0144 28.6606 42.5724 28.4401 43.1586 28.371C45.144 27.9035 46.9449 26.8578 48.3322 25.367L48.6783 25.011H48.7508C48.6923 25.945 48.3209 26.8325 47.696 27.531C46.2919 29.0334 44.4414 30.0473 42.4163 30.4237C42.3164 30.4371 42.2157 30.4445 42.1149 30.446Z" fill="#FAFAFB"/>
<path d="M47.4393 28.4989C47.4446 29.0148 47.3393 29.5258 47.1305 29.9978C46.9216 30.4699 46.614 30.892 46.2282 31.2359C44.8775 32.3295 43.245 33.0217 41.5177 33.233H41.3559C41.6944 32.7908 41.9014 32.2626 41.9531 31.7087C41.4413 31.7761 40.9603 31.9907 40.5689 32.3262C40.5689 32.0814 40.6415 31.9424 40.8647 31.8367C41.1094 31.7232 41.3236 31.5535 41.4898 31.3416C41.5842 31.2231 41.7026 31.1257 41.8372 31.0557C41.9718 30.9857 42.1197 30.9448 42.2712 30.9355C44.0763 30.6543 45.7694 29.8846 47.1658 28.7103C47.2272 28.638 47.2997 28.5879 47.4393 28.4989Z" fill="#FBFBFC"/>
<path d="M21.9225 32.0925L22.676 32.5153C24.0982 33.3304 25.7069 33.7671 27.3473 33.7837C27.4869 33.8013 27.6249 33.8292 27.7603 33.8671C27.9836 33.9116 28.2068 33.9394 28.4245 33.9951C28.5393 34.0432 28.648 34.1048 28.7482 34.1786C28.3408 34.1786 28.0059 34.1786 27.6766 34.1786C27.5703 34.1985 27.4671 34.2321 27.3697 34.2788C27.4143 34.39 27.4311 34.5291 27.5092 34.5903C27.8452 34.8925 28.2076 35.1643 28.5919 35.4025C28.804 35.5249 28.9324 35.6139 28.8598 35.931C28.3017 35.8809 27.7436 35.8698 27.1855 35.7641C26.4082 35.6261 25.6403 35.4403 24.8861 35.2078C23.9892 34.889 23.1936 34.3379 22.5811 33.6112C22.1873 33.1984 21.9386 32.6694 21.8723 32.1037L21.9225 32.0925Z" fill="#FAFAFB"/>
<path d="M42.8014 27.9761L43.4767 25.979C46.0663 25.5006 48.0253 23.8984 49.7945 21.9236C49.7543 22.1851 49.6831 22.4409 49.5824 22.6857C49.2835 23.3045 48.9226 23.8916 48.5053 24.438C47.1894 26.1002 45.3745 27.2991 43.326 27.8592C43.1362 27.9093 42.9409 27.9427 42.8014 27.9761Z" fill="#FAFAFB"/>
<path d="M18.1162 21.8568C19.7905 23.915 21.7607 25.4615 24.3726 25.9845L25.0368 27.9704C24.8751 27.9454 24.7149 27.912 24.5568 27.8703C22.3461 27.2657 20.4051 25.9347 19.0483 24.0931C18.6852 23.5495 18.3838 22.9674 18.1497 22.3574C18.1099 22.1918 18.0986 22.0206 18.1162 21.8512V21.8568Z" fill="#FAFAFB"/>
<path d="M38.9058 35.792C38.9846 35.7324 39.0734 35.6872 39.1681 35.6585C39.8231 35.5455 40.4101 35.1873 40.8089 34.6571C41.0154 34.4068 40.9819 34.3011 40.6694 34.2844C40.262 34.2566 39.8546 34.2844 39.4695 34.2844C39.5476 34.1509 39.6983 34.0897 39.9383 34.0063C40.9261 33.6614 41.9865 33.7671 42.9744 33.45C43.9564 33.1387 44.8942 32.7031 45.7649 32.1538C45.8096 32.126 45.8598 32.1149 45.9435 32.0759C45.8238 32.7788 45.4769 33.4234 44.9557 33.9117C43.8027 34.9879 42.3167 35.6412 40.742 35.7642C40.1504 35.842 39.5532 35.8865 38.956 35.9422L38.9058 35.792Z" fill="#FAFAFB"/>
<path d="M44.152 35.2412C44.1505 35.5465 44.0776 35.8473 43.939 36.1196C43.8005 36.392 43.6001 36.6283 43.3539 36.81C42.5154 37.4228 41.5374 37.8185 40.5076 37.9615C39.9494 38.0672 39.3913 38.1284 38.7439 38.2174C38.7886 37.6611 38.8109 37.1048 38.889 36.5986C38.889 36.5096 39.1402 36.4094 39.2797 36.3983C40.427 36.3644 41.5645 36.1773 42.6619 35.842C43.1642 35.6751 43.6441 35.447 44.152 35.2412Z" fill="#FBFBFC"/>
<path d="M23.6861 35.1912C25.3605 36.1146 27.1185 36.3316 28.9547 36.415L29.0998 38.184C28.0565 38.1505 27.0239 37.963 26.0358 37.6277C25.4718 37.3974 24.9346 37.1064 24.434 36.7599C24.1865 36.5827 23.9881 36.3459 23.8573 36.0716C23.7265 35.7972 23.6676 35.4943 23.6861 35.1912Z" fill="#FBFBFC"/>
<path d="M29.6244 38.579H38.1914C38.3253 39.1353 38.0965 39.4524 37.5049 39.4524H30.4169C29.764 39.4524 29.5798 39.2632 29.6244 38.579Z" fill="#FDFDFE"/>
<path d="M39.3076 12.4944C39.9327 14.4915 38.5598 18.4356 36.7012 19.8987C36.7144 19.5237 36.7649 19.151 36.8519 18.7861C37.5998 16.789 38.3812 14.8086 39.1513 12.8282C39.1969 12.714 39.2491 12.6025 39.3076 12.4944Z" fill="#FAF9FB"/>
<path d="M23.8647 23.5089C24.4697 23.996 25.2056 24.294 25.98 24.3656C26.0699 24.3971 26.1466 24.4578 26.1976 24.5381C26.7557 25.2724 27.3139 26.0122 27.8273 26.7632C27.9378 26.9394 28.0313 27.1257 28.1064 27.3195L27.8385 27.8758C27.6989 27.5142 27.5929 27.1526 27.4311 26.8189C27.1911 26.3238 27.1129 26.3293 26.8339 26.7744C25.4107 26.4906 23.9038 24.8551 23.8647 23.5089Z" fill="#F9F8FA"/>
<path d="M43.9901 23.5034C43.8858 24.2247 43.5773 24.9014 43.1008 25.4541C42.6244 26.0068 41.9997 26.4127 41.3001 26.6242C41.0322 26.3516 40.9764 26.3516 40.7922 26.7077C40.608 27.0637 40.502 27.3919 40.3457 27.7591C40.2676 27.5811 40.1057 27.3919 40.128 27.2306C40.1719 26.9074 40.278 26.5957 40.4406 26.3127C40.8033 25.7175 41.2219 25.1556 41.6182 24.5826C41.6796 24.4992 41.7633 24.3768 41.8414 24.3712C42.6269 24.2958 43.3735 23.9943 43.9901 23.5034Z" fill="#F9F8FA"/>
<path d="M30.6067 18.1018C30.6769 18.0904 30.7485 18.0904 30.8188 18.1018C31.9702 18.4457 33.0296 19.0425 33.9192 19.8483C34.8087 20.6541 35.5057 21.6484 35.959 22.758C36.0029 22.8802 36.0401 23.0046 36.0706 23.1307C35.9929 23.0983 35.9182 23.0592 35.8473 23.0139L30.696 18.202C30.6705 18.1689 30.648 18.1335 30.629 18.0963L30.6067 18.1018Z" fill="#F8F7F9"/>
<path d="M30.2049 18.5023C30.2697 18.5289 30.3314 18.5625 30.389 18.6024L35.4622 23.3309C35.4622 23.3309 35.4957 23.3865 35.5181 23.4143L35.4678 23.47C32.7777 22.7969 31.1592 20.9945 30.2104 18.4967L30.2049 18.5023Z" fill="#F8F7F9"/>
<path d="M38.2249 38.1617H29.6468C29.6468 37.8112 29.7974 37.5609 30.1379 37.5609C32.668 37.5609 35.1962 37.5609 37.7226 37.5609C38.0407 37.5609 38.2026 37.7834 38.2249 38.1617Z" fill="#FBFBFC"/>
<path d="M31.3378 44.9764C31.8513 45.5327 32.1806 45.4937 32.655 44.9152C32.7249 44.8515 32.817 44.8175 32.9117 44.8206H36.1208C36.1908 44.81 36.2622 44.8146 36.3301 44.8341C36.3981 44.8535 36.4611 44.8874 36.5148 44.9333C36.5684 44.9793 36.6115 45.0363 36.641 45.1003C36.6705 45.1644 36.6858 45.2341 36.6858 45.3046C36.6858 45.3751 36.6705 45.4448 36.641 45.5089C36.6115 45.5729 36.5684 45.6299 36.5148 45.6759C36.4611 45.7218 36.3981 45.7557 36.3301 45.7751C36.2622 45.7946 36.1908 45.7992 36.1208 45.7886C34.653 45.7886 33.1852 45.7886 31.7118 45.7886C31.6172 45.7812 31.5253 45.7535 31.4425 45.7074C31.3596 45.6613 31.2878 45.5979 31.2318 45.5216C31.1481 45.3936 31.2318 45.1655 31.2318 44.9653L31.3378 44.9764Z" fill="#FCFCFC"/>
<path d="M47.0821 11.1593C47.456 12.8282 45.7817 15.0534 44.1408 15.0867C44.3697 14.2968 46.1835 11.8769 47.0821 11.1593Z" fill="#F9F8FA"/>
<path d="M20.7393 11.1259C21.9114 12.2051 23.4294 14.2467 23.7029 15.0922C22.0621 15.0922 20.6054 13.1675 20.7393 11.1259Z" fill="#F9F8FA"/>
<path d="M38.8444 12.2384L36.8352 17.4787H36.7571V16.5998C36.7766 16.2886 36.7766 15.9764 36.7571 15.6652C36.7138 15.3243 36.7485 14.9779 36.8587 14.6523C36.9689 14.3266 37.1517 14.0301 37.3933 13.7849L38.7774 12.1772L38.8444 12.2384Z" fill="#F8F7F9"/>
<path d="M43.6051 17.0226C43.6051 16.878 43.6441 16.7611 43.6553 16.6387C43.7223 16.0491 43.8171 15.5595 44.6097 15.4928C45.2914 15.38 45.9149 15.0409 46.3789 14.5304C46.4514 15.7209 44.9334 17.0782 43.6051 17.0226Z" fill="#F8F7F9"/>
<path d="M24.261 17.0282C22.8601 17.0282 21.4091 15.7265 21.4705 14.536C22.1246 15.1389 22.9486 15.5273 23.8313 15.6486C23.874 15.6648 23.9126 15.6901 23.9444 15.7228C23.9762 15.7555 24.0005 15.7947 24.0154 15.8377C24.0991 16.2216 24.1717 16.611 24.261 17.0282Z" fill="#F9F8FA"/>
<path d="M43.5325 19.0364L43.6218 17.5456C44.3952 17.4908 45.1333 17.2016 45.737 16.7167C45.7649 18.0184 44.6822 19.1811 43.5325 19.0364Z" fill="#F9F8FA"/>
<path d="M22.1179 16.7556C22.7319 17.211 23.464 17.4812 24.2275 17.5344L24.3112 19.0197C23.2787 19.2701 22.2072 18.1964 22.0788 16.7946L22.1179 16.7556Z" fill="#F9F8FA"/>
<path d="M25.7846 23.8149C24.4061 23.687 23.2397 22.4854 23.3401 21.4006C23.8592 21.5675 24.3894 21.74 24.9196 21.9235C24.9532 21.9382 24.9834 21.9596 25.0083 21.9864C25.0333 22.0132 25.0525 22.0448 25.0647 22.0793C25.3047 22.6523 25.5391 23.2253 25.7846 23.8149Z" fill="#F9F8FA"/>
<path d="M42.0591 23.8149C42.3047 23.2197 42.5335 22.6467 42.7791 22.0793C42.7993 22.0408 42.827 22.0068 42.8605 21.9791C42.894 21.9514 42.9328 21.9306 42.9744 21.9179C43.4934 21.7344 44.0125 21.5675 44.5204 21.395C44.6487 22.4297 43.432 23.6981 42.0591 23.8149Z" fill="#F9F8FA"/>
<path d="M36.0762 43.5522V44.4034H32.7275C32.9173 44.1252 33.0903 43.8749 33.2856 43.6301C33.3079 43.6068 33.3348 43.5884 33.3645 43.576C33.3943 43.5635 33.4264 43.5573 33.4586 43.5578L36.0762 43.5522Z" fill="#F8F7F9"/>
<path d="M42.7735 37.8613C41.7186 39.1909 40.2229 39.3188 38.649 39.3744L38.6993 38.7125C39.2965 38.6234 39.888 38.5789 40.4573 38.451C41.155 38.2952 41.8414 38.0672 42.5335 37.8947C42.6151 37.8862 42.6974 37.8862 42.7791 37.8947L42.7735 37.8613Z" fill="#F3F3F5"/>
<path d="M31.3267 12.7392C30.2264 11.7143 29.4752 10.3722 29.1779 8.90076C29.4737 9.2401 29.736 9.585 30.0542 9.9299C30.3723 10.2748 30.5565 10.5251 30.8132 10.82C31.4215 11.5098 31.4774 11.6822 31.3267 12.7392Z" fill="#F8F7F9"/>
<path d="M25.1149 37.828C25.1428 37.828 25.1763 37.828 25.1986 37.828C26.3959 38.3116 27.6649 38.5954 28.9547 38.668C29.0149 38.6752 29.0746 38.6864 29.1333 38.7014L29.2003 39.3634C27.8608 39.3356 26.5827 39.2466 25.5335 38.3454C25.377 38.1872 25.2368 38.0139 25.1149 37.828Z" fill="#F5F4F7"/>
<path d="M45.0952 19.1754C45.1343 20.1823 44.2636 21.1558 43.019 21.4006L43.432 19.6594L45.0952 19.1754Z" fill="#F8F7F9"/>
<path d="M22.7541 19.1754L24.4284 19.665L24.8303 21.3338C23.7754 21.3616 22.6536 20.1322 22.7541 19.1754Z" fill="#F9F8FA"/>
<path d="M34.8316 39.864C34.6474 40.131 34.4856 40.3758 34.307 40.615C34.2872 40.6398 34.2628 40.6604 34.235 40.6757C34.2072 40.6909 34.1767 40.7006 34.1451 40.704C33.3749 40.704 32.5991 40.704 31.8066 40.704V39.864H34.8316Z" fill="#FAF9FB"/>
<path d="M50.1796 40.2701C50.0158 40.4091 49.8402 40.5338 49.655 40.6428C48.6375 41.1668 47.6982 41.8296 46.8644 42.6121C46.5072 42.9515 46.2058 43.352 45.8598 43.7247L45.3966 42.8791C45.4493 42.8376 45.5053 42.8004 45.564 42.7679C47.0115 42.0524 48.3806 41.1893 49.6494 40.1922C49.8112 40.0532 49.9787 39.9308 50.1796 40.2701Z" fill="#F1F1F4"/>
<path d="M22.436 42.8902L22.0118 43.6746C20.9758 42.3788 19.6517 41.3408 18.1441 40.6428C17.9654 40.5298 17.7956 40.4033 17.6362 40.2645C17.826 39.9418 17.9879 40.0698 18.1609 40.1922C19.1097 40.8375 20.0473 41.4883 21.0072 42.1114C21.4537 42.4006 21.9393 42.6232 22.436 42.8902Z" fill="#F0EFF3"/>
<path d="M36.0762 42.3229V43.135H33.6763C33.7143 42.9013 33.837 42.6896 34.0211 42.5399C34.2052 42.3902 34.4379 42.313 34.6753 42.3229H36.0762Z" fill="#F1F1F4"/>
<path d="M26.739 28.6324C26.5693 28.5699 26.405 28.4936 26.2479 28.4043C25.9249 28.1778 25.6529 27.8867 25.4492 27.5495C25.2455 27.2124 25.1145 26.8366 25.0647 26.4462C25.327 26.6019 25.5726 26.7633 25.8404 26.9023C26.1083 27.0414 26.3986 27.1415 26.6218 27.2472L26.7334 28.638L26.739 28.6324Z" fill="#F5F4F7"/>
<path d="M29.5128 37.2717L29.4514 36.4484L29.7807 36.593C30.0887 36.7352 30.422 36.8148 30.7613 36.8273C31.1005 36.8397 31.4388 36.7846 31.7564 36.6653C32.4038 36.4317 32.5824 36.4929 32.9508 37.1437H32.2141C31.6559 37.1437 31.0588 37.1437 30.4783 37.1437C30.1658 37.1771 29.8588 37.2717 29.5128 37.2717Z" fill="#EDECF0"/>
<path d="M35.4734 39.8807L35.2725 40.1756C34.3349 41.5162 33.3917 42.8458 32.4819 44.192C32.4109 44.3173 32.3762 44.4598 32.3815 44.6037C32.3959 44.698 32.3724 44.7943 32.3159 44.8714C32.2595 44.9485 32.1747 45.0003 32.0801 45.0153C32.0336 45.0294 31.9844 45.0323 31.9365 45.0238C31.8887 45.0152 31.8436 44.9955 31.8049 44.9662C31.7662 44.9368 31.735 44.8988 31.714 44.8551C31.693 44.8114 31.6826 44.7634 31.6838 44.7149C31.6838 44.5759 31.8624 44.4312 31.9796 44.3144C32.0968 44.1976 32.2308 44.1809 32.3033 44.0808C33.2465 42.7512 34.1842 41.4105 35.1274 40.081C35.2129 39.9773 35.3103 39.884 35.4176 39.8029L35.4734 39.8807Z" fill="#E7E6EA"/>
<path d="M33.9442 41.1323C33.7712 41.3827 33.6261 41.6052 33.4642 41.8166C33.4389 41.8496 33.407 41.877 33.3705 41.8972C33.334 41.9173 33.2937 41.9296 33.2521 41.9334C32.7666 41.9334 32.2754 41.9334 31.7787 41.9334V41.1323H33.9442Z" fill="#F9F8FA"/>
<path d="M31.8569 23.776V22.0793L33.5312 23.2976L31.8569 23.776Z" fill="#EFEEF1"/>
<path d="M41.4954 28.4711V27.1249L42.8125 26.4629C42.7416 26.8693 42.5882 27.2571 42.3618 27.6024C42.1353 27.9477 41.8405 28.2433 41.4954 28.4711Z" fill="#F5F4F7"/>
<path d="M38.3253 37.2995C38.0365 37.2362 37.7438 37.1916 37.4491 37.166C36.718 37.166 35.9869 37.166 35.2502 37.166C35.4902 36.5707 35.8083 36.4428 36.3273 36.682C36.6451 36.8306 36.9895 36.9145 37.3402 36.9288C37.691 36.9431 38.0411 36.8876 38.37 36.7654L38.3253 37.2995Z" fill="#E7E6EA"/>
<path d="M29.6412 8.52246C30.149 8.8173 30.6681 9.07875 31.1648 9.40697C31.2751 9.4996 31.3451 9.63118 31.3601 9.77412C31.3859 10.0593 31.3652 10.3467 31.2988 10.6253L29.6244 8.57253L29.6412 8.52246Z" fill="#F5F4F7"/>
<path d="M36.0762 41.1267V41.9389H34.4967C34.8762 41.1212 35.0437 41.0377 36.0762 41.1267Z" fill="#F9F8FA"/>
<path d="M34.3293 23.6481C34.7417 23.6064 35.1582 23.6612 35.5457 23.8079C35.9332 23.9547 36.2811 24.1895 36.5617 24.4936C36.1478 24.5626 35.7229 24.5207 35.3306 24.3721C34.9383 24.2235 34.5927 23.9736 34.3293 23.6481Z" fill="#F1F1F4"/>
<path d="M33.8437 23.6481C33.5787 23.972 33.2331 24.221 32.8414 24.3704C32.4497 24.5197 32.0256 24.5641 31.6113 24.4992C31.8914 24.1941 32.239 23.9582 32.6265 23.8105C33.0141 23.6627 33.4308 23.6071 33.8437 23.6481Z" fill="#F0EFF3"/>
<path d="M39.3411 24.6827C39.6173 24.9329 39.8217 25.2517 39.9335 25.6065C40.0454 25.9614 40.0605 26.3395 39.9773 26.7021C39.6942 26.4571 39.4849 26.1387 39.3725 25.7822C39.2602 25.4256 39.2493 25.0451 39.3411 24.6827Z" fill="#EFEEF1"/>
<path d="M40.4852 31.4806C40.1679 31.271 39.9083 30.9856 39.7299 30.6504C39.5515 30.3152 39.4601 29.9408 39.4639 29.5614C39.799 29.752 40.0729 30.0336 40.2537 30.3734C40.4345 30.7132 40.5148 31.0971 40.4852 31.4806Z" fill="#F1F1F4"/>
<path d="M37.5942 26.3405C37.9678 26.2716 38.3527 26.2966 38.7142 26.4132C39.0757 26.5297 39.4024 26.7342 39.6648 27.008C39.2918 27.106 38.8984 27.0952 38.5313 26.9769C38.1643 26.8585 37.839 26.6376 37.5942 26.3405Z" fill="#F0EFF3"/>
<path d="M33.0791 42.3451C32.7666 42.8402 32.521 43.402 31.7787 43.1128V42.3451H33.0791Z" fill="#EFEEF1"/>
<path d="M28.5138 27.0303C28.7578 26.7452 29.0762 26.5329 29.4338 26.4171C29.7914 26.3012 30.1742 26.2863 30.5397 26.3739C30.2949 26.658 29.9764 26.8695 29.6191 26.9853C29.2618 27.101 28.8794 27.1166 28.5138 27.0303Z" fill="#F0EFF3"/>
<path d="M38.4537 35.4248C38.6985 35.1117 39.0187 34.8654 39.3846 34.7088C39.7506 34.5522 40.1503 34.4904 40.5466 34.5292C40.2992 34.8392 39.9785 35.0833 39.6133 35.2396C39.248 35.3959 38.8496 35.4595 38.4537 35.4248Z" fill="#EFEEF1"/>
<path d="M37.4268 34.2231C37.3959 34.601 37.2717 34.9653 37.0652 35.2837C36.8588 35.602 36.5765 35.8645 36.2436 36.0478C36.2458 35.6629 36.3584 35.2866 36.568 34.9633C36.7777 34.6401 37.0756 34.3833 37.4268 34.2231Z" fill="#F0EFF3"/>
<path d="M31.868 36.3371C31.532 36.5073 31.1582 36.5899 30.7815 36.5773C30.4048 36.5646 30.0375 36.4571 29.7137 36.2648C30.0419 36.0696 30.4196 35.9727 30.8015 35.9855C31.1835 35.9983 31.5537 36.1204 31.868 36.3371Z" fill="#F1F1F4"/>
<path d="M38.1579 35.1355C38.05 34.771 38.0359 34.3853 38.1168 34.014C38.1978 33.6426 38.3712 33.2975 38.6211 33.0105C38.7533 33.3721 38.78 33.7637 38.698 34.1398C38.616 34.5159 38.4287 34.8612 38.1579 35.1355Z" fill="#F0EFF3"/>
<path d="M27.1464 26.8579C27.353 27.1773 27.4761 27.5432 27.5044 27.9222C27.5326 28.3011 27.4652 28.6811 27.3083 29.0275C27.0782 28.7181 26.9409 28.3501 26.9123 27.966C26.8836 27.582 26.9648 27.1978 27.1464 26.8579Z" fill="#F1F1F4"/>
<path d="M36.7961 23.3198C37.1515 23.4501 37.4684 23.667 37.718 23.9507C37.9676 24.2345 38.1418 24.576 38.2249 24.9442C37.8549 24.8398 37.5231 24.6308 37.2695 24.3426C37.016 24.0543 36.8516 23.6991 36.7961 23.3198Z" fill="#F1F1F4"/>
<path d="M29.8253 35.3191C29.4451 35.3602 29.0606 35.306 28.7067 35.1612C28.3529 35.0164 28.041 34.7858 27.7994 34.4902C28.1812 34.4217 28.5747 34.4634 28.9336 34.6102C29.2925 34.757 29.6019 35.003 29.8253 35.3191Z" fill="#F2F2F5"/>
<path d="M36.4166 36.3872C36.7432 36.189 37.1154 36.0778 37.4975 36.0642C37.8796 36.0505 38.2588 36.1349 38.5988 36.3093C38.2785 36.5237 37.9044 36.6445 37.5188 36.6583C37.1333 36.672 36.7515 36.5782 36.4166 36.3872Z" fill="#F1F1F4"/>
<path d="M40.5466 29.2388C40.156 29.1708 39.7893 29.0043 39.4815 28.755C39.1738 28.5057 38.9352 28.182 38.7886 27.8147C39.1792 27.8827 39.5459 28.0492 39.8537 28.2985C40.1614 28.5478 40.4 28.8715 40.5466 29.2388Z" fill="#F1F1F4"/>
<path d="M40.8926 29.0775C40.725 28.7251 40.6499 28.3361 40.6743 27.9469C40.6987 27.5577 40.8218 27.1811 41.0322 26.8523C41.1983 27.205 41.2726 27.5938 41.2482 27.9827C41.2238 28.3716 41.1015 28.7481 40.8926 29.0775Z" fill="#F2F2F5"/>
<path d="M30.8858 34.1174C31.2238 34.2951 31.512 34.554 31.7245 34.8706C31.9369 35.1873 32.0668 35.5517 32.1024 35.9309C31.7487 35.7737 31.4468 35.5201 31.2315 35.1992C31.0163 34.8783 30.8964 34.5033 30.8858 34.1174Z" fill="#F2F2F5"/>
<path d="M30.0988 25.3503C30.4499 25.2003 30.8332 25.1406 31.2135 25.1766C31.5937 25.2125 31.9589 25.343 32.2754 25.5561C31.9298 25.7289 31.5424 25.8013 31.1575 25.7649C30.7725 25.7285 30.4057 25.5848 30.0988 25.3503Z" fill="#F1F1F4"/>
<path d="M31.4104 23.2976C31.3344 23.6884 31.159 24.0533 30.901 24.3572C30.643 24.6611 30.3111 24.8938 29.937 25.0332C30.0145 24.643 30.1904 24.2789 30.4482 23.9753C30.706 23.6716 31.0371 23.4384 31.4104 23.2976Z" fill="#F2F2F5"/>
<path d="M41.9307 29.5448C41.9384 29.924 41.851 30.2991 41.6766 30.6361C41.5021 30.9732 41.2461 31.2615 40.9317 31.4751C40.8978 31.0921 40.9736 30.7074 41.1505 30.3656C41.3274 30.0239 41.5979 29.7393 41.9307 29.5448Z" fill="#F1F1F4"/>
<path d="M29.3677 27.8536C29.224 28.2026 28.9959 28.5106 28.7037 28.7504C28.4116 28.9901 28.0645 29.1541 27.6934 29.2277C27.8113 28.863 28.0318 28.5397 28.3286 28.2961C28.6253 28.0526 28.986 27.899 29.3677 27.8536Z" fill="#F2F2F5"/>
<path d="M29.63 32.9103C29.9017 33.1865 30.0926 33.5315 30.1821 33.9079C30.2716 34.2844 30.2563 34.678 30.1379 35.0464C29.8802 34.7614 29.6987 34.4164 29.6099 34.0431C29.5211 33.6698 29.5281 33.2802 29.63 32.9103Z" fill="#F2F2F5"/>
<path d="M39.2741 31.425C39.5223 31.7075 39.6962 32.0471 39.78 32.4132C39.8637 32.7793 39.8549 33.1604 39.7541 33.5223C39.2574 33.233 38.9951 32.1427 39.2741 31.425Z" fill="#F1F1F4"/>
<path d="M28.9212 31.3972C29.0378 31.7703 29.0569 32.1669 28.9768 32.5495C28.8967 32.932 28.7201 33.2879 28.4636 33.5835C28.347 33.2103 28.3279 32.8137 28.4079 32.4312C28.488 32.0486 28.6647 31.6928 28.9212 31.3972Z" fill="#F2F2F5"/>
<path d="M35.479 34.8129C35.5827 35.1703 35.5963 35.5478 35.5184 35.9118C35.4405 36.2757 35.2736 36.6148 35.0325 36.899C34.6697 36.3149 35.0381 35.0465 35.479 34.8129Z" fill="#F2F2F5"/>
<path d="M28.0059 33.6391C27.6507 33.5252 27.3305 33.323 27.0756 33.0514C26.8207 32.7798 26.6396 32.4479 26.5492 32.087C26.9135 32.178 27.2447 32.3691 27.5052 32.6386C27.7657 32.9081 27.945 33.2451 28.0227 33.6113L28.0059 33.6391Z" fill="#F1F1F4"/>
<path d="M32.7219 34.7572C32.9716 35.0422 33.1461 35.3847 33.2299 35.7537C33.3137 36.1227 33.3041 36.5067 33.2019 36.8711C32.7052 36.5596 32.4708 35.6028 32.7219 34.7572Z" fill="#F2F2F5"/>
<path d="M35.892 25.5895C36.1946 25.3515 36.5589 25.2041 36.9423 25.1647C37.3257 25.1253 37.7125 25.1955 38.0575 25.367C37.7424 25.5781 37.3802 25.7088 37.0026 25.7476C36.625 25.7864 36.2436 25.7321 35.892 25.5895Z" fill="#F2F2F5"/>
<path d="M26.2814 29.5392C26.5924 29.7482 26.8465 30.031 27.0209 30.3621C27.1952 30.6932 27.2844 31.0622 27.2804 31.4361C26.947 31.2509 26.6749 30.9728 26.4975 30.6359C26.3201 30.299 26.245 29.9179 26.2814 29.5392Z" fill="#F3F3F5"/>
<path d="M27.6655 31.4528C27.655 31.0795 27.739 30.7095 27.9097 30.377C28.0804 30.0445 28.3323 29.7602 28.6422 29.5503C28.6811 29.9276 28.6095 30.308 28.4362 30.6456C28.2629 30.9832 27.9952 31.2636 27.6655 31.4528Z" fill="#F3F3F5"/>
<path d="M40.1001 33.6948C40.1886 33.3094 40.3753 32.9534 40.6422 32.661C40.9092 32.3687 41.2472 32.1499 41.6238 32.0259C41.5314 32.4094 41.3433 32.7635 41.0769 33.0553C40.8105 33.347 40.4746 33.567 40.1001 33.6948Z" fill="#F3F3F5"/>
<path d="M28.2012 26.7633C28.1086 26.3889 28.1199 25.9965 28.234 25.628C28.348 25.2595 28.5605 24.9289 28.8487 24.6716C28.9275 25.0464 28.9094 25.435 28.7962 25.8009C28.6829 26.1668 28.4782 26.4979 28.2012 26.7633Z" fill="#F3F3F5"/>
<path d="M33.6261 36.7153C33.76 36.6152 33.8828 36.4594 34.0335 36.4316C34.0829 36.4207 34.1343 36.4217 34.1832 36.4345C34.2322 36.4473 34.2774 36.4716 34.3151 36.5053C34.3527 36.539 34.3818 36.5812 34.3998 36.6284C34.4178 36.6756 34.4242 36.7264 34.4186 36.7765C34.4251 36.8268 34.4199 36.8779 34.4034 36.9258C34.3868 36.9737 34.3594 37.0171 34.3231 37.0527C34.2869 37.0883 34.2429 37.115 34.1946 37.1308C34.1463 37.1465 34.095 37.151 34.0446 37.1437C33.8995 37.1437 33.7656 36.9657 33.6316 36.8655L33.6261 36.7153Z" fill="#F0EFF3"/>
<path d="M36.0706 40.6984H35.3227C35.5218 40.3467 35.774 40.0277 36.0706 39.7527V40.6984Z" fill="#EDECF0"/>
<path d="M29.4123 36.0255L29.3789 35.6361H30.3109V35.7196L29.4123 36.0255Z" fill="#E7E6EA"/>
<path d="M37.7896 35.8031C37.9682 35.5194 38.1802 35.6306 38.3477 35.6807C38.3979 35.6807 38.4146 35.8087 38.4705 35.931L37.7896 35.8031Z" fill="#DDDCE2"/>
<path d="M32.2866 43.5634L31.7731 44.0807V43.5634H32.2866Z" fill="#EDECF0"/>
<path d="M54.6947 4.41136L54.7505 4.3446V4.44474L54.6947 4.41136Z" fill="#FBFBFC"/>
<path d="M35.5181 23.4144L35.5794 23.4867H35.4678L35.5181 23.4144Z" fill="#F8F7F9"/>
<path d="M44.9557 22.185H44.8887C44.8859 22.161 44.8859 22.1367 44.8887 22.1127L44.9557 22.185Z" fill="#FBFBFC"/>
<path d="M18.1162 21.8512L18.0771 21.9013H18.1274L18.1162 21.8512Z" fill="#FAFAFB"/>
<path d="M30.2104 18.4968L30.177 18.4634V18.5079L30.2104 18.4968Z" fill="#F8F7F9"/>
<path d="M30.6123 18.0962L30.5676 18.0684H30.6067V18.1184L30.6123 18.0962Z" fill="#F8F7F9"/>
<path d="M51.6195 15.2202H51.6642V15.248H51.6251L51.6195 15.2202Z" fill="#FBFBFC"/>
<path d="M47.3388 13.0228V13.0729L47.3779 13.0395L47.3388 13.0228Z" fill="#FBFBFC"/>
<path d="M29.5798 8.57249V8.50574H29.6635L29.5798 8.57249Z" fill="#F5F4F7"/>
<path d="M22.09 16.7889V16.7222L22.1179 16.7555L22.09 16.7889Z" fill="#F9F8FA"/>
<path d="M13.11 4.45039V4.36694L13.1602 4.41701L13.11 4.45039Z" fill="#FBFBFC"/>
<path d="M28.0227 33.6112V33.6613H27.9892L28.0227 33.6112Z" fill="#F1F1F4"/>
<path d="M42.7791 37.8558H42.7232L42.7567 37.9059L42.7791 37.8558Z" fill="#F3F3F5"/>
<path d="M21.9002 32.1204V32.0592L21.9337 32.0926L21.9002 32.1204Z" fill="#FAFAFB"/>
<path d="M24.7354 38.2285L24.7856 38.2897H24.6963L24.7354 38.2285Z" fill="white"/>
<path d="M45.084 41.6664L44.392 41.9389L43.7613 40.3479L43.5102 40.4759L44.1185 42.0391L43.432 42.3228L42.5167 40.0086L44.1911 39.3522L45.084 41.6664Z" fill="#23203C"/>
<path d="M40.5801 42.2783L40.3736 41.3771L39.4695 41.5606L39.2295 40.5092L39.9215 40.3368L40.0499 40.6261L40.954 40.4425C41.0824 41.1045 41.2331 41.7553 41.3224 42.4173C41.3331 42.5538 41.2928 42.6895 41.2094 42.7983C41.126 42.9071 41.0053 42.9814 40.8703 43.007C40.6192 43.0849 40.3569 43.1238 40.0666 43.1906L39.8936 42.4507L40.5801 42.2783Z" fill="#23203C"/>
<path d="M41.1494 40.4092L42.193 40.0977L42.6563 41.6163L41.9475 41.8277L41.7075 41.099C41.1773 41.099 41.4452 40.6094 41.1494 40.4092Z" fill="#24203C"/>
<path d="M26.2311 42.7845C26.326 42.3784 26.4041 42.0224 26.4934 41.6719C26.4934 41.6051 26.5269 41.5106 26.5716 41.4939C27.0739 41.2825 26.8395 40.9376 26.7837 40.576L26.7502 40.4147C27.3083 40.3535 27.4311 40.4592 27.5873 41.2491L27.7659 40.6094L28.458 40.7596C28.3687 41.149 28.285 41.5106 28.1957 41.8722C28.1957 41.9167 28.1678 41.9723 28.1343 41.9834C27.6543 42.1726 27.8441 42.5397 27.8943 42.8735C27.8943 42.9681 27.9222 43.0626 27.9334 43.1516C27.3139 43.2073 27.0906 42.8902 27.0739 42.3339L26.912 42.9402L26.2311 42.7845Z" fill="#23203C"/>
<path d="M30.5621 41.0878L30.1881 43.5466L29.457 43.4353L29.697 41.7665L28.6868 41.594L28.7984 40.843L30.5621 41.0878Z" fill="#24203C"/>
<path d="M22.0509 41.1657L21.3867 40.8319L22.1402 39.3021L21.4258 38.9405L21.7662 38.234C22.0844 38.3953 22.3969 38.5288 22.6871 38.7013C22.7483 38.7308 22.8029 38.7723 22.8477 38.8233C22.8925 38.8742 22.9266 38.9336 22.9479 38.998C22.9692 39.0623 22.9774 39.1302 22.9719 39.1978C22.9664 39.2653 22.9474 39.331 22.916 39.3911C22.6481 39.9752 22.3523 40.5426 22.0509 41.1657Z" fill="#23203C"/>
<path d="M25.7009 40.0531L26.4097 40.2756L25.673 42.6065L24.9586 42.3951L25.7009 40.0531Z" fill="#24203C"/>
<path d="M24.6517 39.6471L25.3493 39.903L24.4787 42.2227L23.7754 41.9668L24.6517 39.6471Z" fill="#24213D"/>
<path d="M23.4406 39.1074L24.3335 39.5135L23.6638 40.9543L22.9829 40.6539L23.2955 39.9641C23.0722 39.736 23.0834 39.686 23.4406 39.1074Z" fill="#24213D"/>
<path d="M29.1612 43.3909L28.4301 43.2796L28.6366 41.9111L29.3677 42.0224L29.1612 43.3909Z" fill="#24213D"/>
</svg>
